<?xml version="1.0" encoding="UTF-8"?>
<svg id="Layer_2" data-name="Layer 2" xmlns="http://www.w3.org/2000/svg" viewBox="0 0 226.74 226.83">
  <defs>
    <style>
      .cls-1 {
        fill: #ff6161;
      }
    </style>
  </defs>
  <g id="Layer_1-2" data-name="Layer 1">
    <g>
      <path class="cls-1" d="M68.41,23.92l-3.41,1.59-5.66-12.15,3.41-1.59,5.66,12.15ZM73.7,15.9l-9.94,4.63-1.43-3.06,9.94-4.63,1.43,3.06ZM77.48,19.7l-3.41,1.59-5.66-12.15,3.41-1.59,5.66,12.15Z"/>
      <path class="cls-1" d="M89.43,16.41c-1.5.37-2.86.41-4.08.13-1.22-.28-2.23-.86-3.05-1.72-.82-.86-1.39-1.97-1.73-3.33-.33-1.36-.34-2.61-.02-3.75s.96-2.12,1.9-2.94c.95-.82,2.17-1.41,3.67-1.78,1.55-.38,2.94-.43,4.16-.15,1.22.28,2.23.86,3.05,1.72.82.86,1.39,1.97,1.73,3.33.33,1.36.34,2.61.02,3.75-.32,1.14-.96,2.12-1.9,2.94s-2.2,1.42-3.75,1.8ZM88.57,12.91c.88-.22,1.54-.47,1.99-.77s.72-.7.8-1.22c.09-.52.02-1.2-.19-2.06-.21-.87-.48-1.51-.79-1.92s-.74-.64-1.27-.7c-.54-.05-1.24.03-2.12.24-.88.22-1.54.47-1.97.76s-.69.69-.77,1.2c-.07.51,0,1.19.21,2.06.21.85.47,1.49.77,1.91s.71.66,1.24.71c.52.06,1.22-.02,2.1-.24Z"/>
      <path class="cls-1" d="M105.39,13.6l-3.75.21-.75-13.38,3.75-.21.75,13.38ZM108.86,10.02l-6.15.34-.19-3.37,5.73-.32c.67-.04,1.14-.16,1.41-.38.27-.22.39-.67.35-1.36-.04-.68-.21-1.11-.5-1.29-.3-.18-.78-.26-1.44-.22l-5.73.32-.19-3.38L108.3.01c1.06-.06,1.99.09,2.79.44.79.35,1.42.88,1.88,1.6.46.72.72,1.61.78,2.67.06,1.05-.1,1.97-.48,2.74-.38.78-.94,1.38-1.69,1.82-.75.44-1.66.68-2.72.74Z"/>
      <path class="cls-1" d="M133.24,15.48c-1.52-.31-2.76-.85-3.74-1.62-.98-.78-1.65-1.73-2.02-2.86-.37-1.13-.42-2.38-.14-3.75.28-1.37.81-2.51,1.59-3.4s1.77-1.51,2.98-1.85c1.2-.33,2.56-.35,4.08-.04,1.57.32,2.84.86,3.82,1.64.98.78,1.65,1.73,2.02,2.86.37,1.13.42,2.38.14,3.75-.28,1.37-.81,2.51-1.59,3.4-.78.9-1.77,1.51-2.98,1.85-1.2.33-2.59.34-4.16.03ZM133.96,11.95c.89.18,1.6.23,2.13.16.53-.08.95-.33,1.25-.76.3-.43.53-1.08.71-1.94.18-.88.21-1.57.1-2.07-.11-.5-.39-.9-.85-1.17s-1.14-.5-2.02-.68-1.59-.23-2.11-.15c-.52.08-.92.33-1.2.76-.28.43-.51,1.08-.69,1.95-.17.86-.21,1.55-.12,2.06.09.51.37.9.81,1.17.45.27,1.12.5,2,.68Z"/>
      <path class="cls-1" d="M148.88,19.74l-3.47-1.44,5.13-12.38,3.69,1.53,1.52,6.06.63,3.6.24.1.95-2.77,1.98-4.79,3.47,1.44-5.13,12.38-3.7-1.53-1.68-6.28-.56-3.09-.24-.1-.83,2.43-2.01,4.84Z"/>
      <path class="cls-1" d="M174.23,34.19c-1.23-.94-2.11-1.98-2.64-3.1-.53-1.12-.72-2.27-.55-3.45.16-1.18.67-2.32,1.53-3.43.85-1.11,1.83-1.9,2.92-2.36,1.09-.46,2.25-.58,3.48-.35,1.22.23,2.45.81,3.67,1.75,1.19.92,2.08,1.88,2.65,2.9.57,1.01.83,2.03.76,3.06-.07,1.03-.46,2.01-1.19,2.97l-.21.27-3.33-2.56.21-.27c.46-.6.62-1.16.49-1.68s-.65-1.12-1.52-1.79c-.72-.55-1.33-.91-1.84-1.07-.51-.16-.98-.12-1.43.14-.45.25-.94.73-1.49,1.44-.54.7-.87,1.3-1,1.8-.13.5-.06.98.23,1.42.29.45.79.95,1.51,1.5.88.67,1.58,1.01,2.12,1.01.54,0,1.04-.3,1.5-.9l.21-.27,3.33,2.56-.21.27c-.72.94-1.57,1.58-2.55,1.91s-2.03.35-3.16.06c-1.13-.29-2.29-.9-3.48-1.82Z"/>
      <path class="cls-1" d="M185.96,44.37l-2.77-3.18,13.9-4.46,3.54,4.05-6.28,13.18-2.84-3.25,3.74-7.49,1.12-2.15-.17-.2-2.27.84-7.96,2.65ZM193.8,49.58l-6.5-7.44,2.55-2.22,6.5,7.44-2.55,2.22Z"/>
      <path class="cls-1" d="M198.64,60.96l-1.91-3.24,11.54-6.81,1.91,3.24-11.54,6.81ZM202.57,67.63l-5.31-9.01,2.91-1.72,5.31,9.01-2.91,1.72Z"/>
      <path class="cls-1" d="M206.11,75.73l-1.35-3.51,12.51-4.8,1.35,3.51-12.51,4.8ZM208.89,82.95l-3.75-9.77,3.16-1.21,3.75,9.77-3.16,1.21Z"/>
      <path class="cls-1" d="M217.46,98.98l-.77-4.82,3.79-.61.77,4.82-3.79.61Z"/>
      <path class="cls-1" d="M211.68,133.08l.48-3.73,13.29,1.72-.48,3.73-13.29-1.72ZM212.97,123.17l.48-3.73,13.29,1.72-.48,3.73-13.29-1.72ZM216.91,131.92l1.41-10.87,3.35.43-1.41,10.87-3.35-.43Z"/>
      <path class="cls-1" d="M208.08,144.95c.49-1.47,1.18-2.64,2.07-3.51.89-.88,1.92-1.43,3.08-1.66s2.41-.12,3.74.32,2.39,1.11,3.18,1.99,1.28,1.94,1.47,3.18c.18,1.24.03,2.59-.46,4.05-.51,1.52-1.21,2.71-2.1,3.59s-1.92,1.43-3.08,1.66-2.41.12-3.74-.32-2.39-1.11-3.18-1.99c-.79-.88-1.28-1.94-1.47-3.18-.18-1.24-.02-2.61.49-4.13ZM211.49,146.1c-.29.86-.43,1.56-.42,2.1,0,.54.21.98.6,1.33.39.35,1,.66,1.84.94.85.28,1.53.4,2.04.36.51-.05.94-.28,1.27-.7.33-.42.64-1.07.93-1.92.29-.86.42-1.55.41-2.08-.01-.53-.21-.96-.6-1.29-.39-.33-1-.64-1.85-.93-.83-.28-1.51-.4-2.03-.37s-.94.25-1.27.66c-.33.41-.63,1.05-.92,1.91Z"/>
      <path class="cls-1" d="M201.91,159.94l1.83-3.28,11.7,6.53-1.83,3.28-11.7-6.53ZM203.08,164.78l3-5.38,2.95,1.65-2.8,5.01c-.32.58-.47,1.05-.44,1.39.04.35.35.69.96,1.03.59.33,1.05.42,1.36.27.31-.15.63-.52.96-1.1l2.8-5.01,2.95,1.65-3,5.38c-.52.93-1.14,1.64-1.86,2.12-.72.48-1.51.73-2.36.73-.85,0-1.74-.25-2.67-.77-.92-.51-1.61-1.14-2.06-1.87-.45-.73-.66-1.53-.63-2.4s.31-1.77.83-2.7Z"/>
      <path class="cls-1" d="M185.38,182.43c1.07-1.12,2.2-1.88,3.38-2.29,1.18-.41,2.35-.47,3.5-.18,1.15.29,2.23.92,3.24,1.9,1.01.97,1.68,2.02,2.02,3.16.34,1.14.33,2.31-.04,3.5s-1.08,2.35-2.15,3.47c-1.11,1.15-2.25,1.93-3.43,2.34s-2.35.47-3.5.18c-1.15-.29-2.23-.92-3.24-1.9-1.01-.97-1.68-2.02-2.02-3.16-.34-1.14-.33-2.31.04-3.5.36-1.2,1.1-2.37,2.21-3.52ZM187.98,184.93c-.63.65-1.05,1.22-1.27,1.71-.22.49-.23.98-.03,1.46.2.48.62,1.03,1.26,1.64.64.62,1.21,1.02,1.69,1.2s.97.15,1.45-.09c.48-.24,1.04-.69,1.66-1.34.63-.65,1.05-1.22,1.26-1.7s.21-.95,0-1.42c-.21-.47-.63-1.01-1.28-1.63-.63-.61-1.19-1.01-1.67-1.21s-.96-.17-1.43.06c-.47.23-1.02.67-1.65,1.33Z"/>
      <path class="cls-1" d="M173.41,193.36l3.07-2.17,7.72,10.95-3.27,2.3-5.93-1.96-3.38-1.39-.21.15,1.83,2.28,2.99,4.23-3.07,2.17-7.72-10.95,3.27-2.31,6.21,1.93,2.91,1.18.21-.15-1.61-2-3.02-4.28Z"/>
      <path class="cls-1" d="M147.65,207.07c1.45-.53,2.79-.72,4.03-.57s2.3.61,3.21,1.38c.91.77,1.6,1.81,2.08,3.12s.62,2.56.43,3.73c-.19,1.17-.71,2.21-1.56,3.13-.84.91-1.99,1.63-3.44,2.17-1.41.52-2.7.75-3.87.69-1.16-.06-2.16-.39-2.99-.99-.83-.6-1.45-1.47-1.87-2.6l-.12-.32,3.94-1.45.12.32c.26.71.65,1.15,1.16,1.31.51.16,1.29.05,2.33-.33.85-.31,1.48-.64,1.89-.98.41-.34.62-.77.65-1.28.02-.51-.12-1.19-.42-2.03-.3-.83-.63-1.43-.98-1.81s-.79-.57-1.33-.57c-.53,0-1.22.16-2.07.47-1.04.38-1.7.8-1.99,1.25-.29.45-.3,1.04-.04,1.75l.12.32-3.94,1.45-.12-.32c-.41-1.11-.49-2.17-.25-3.18s.79-1.91,1.64-2.7c.85-.8,1.99-1.45,3.4-1.97Z"/>
      <path class="cls-1" d="M132.78,211.52l4.17-.63-3.7,14.12-5.32.81-7.75-12.38,4.27-.65,4.31,7.17,1.21,2.1.26-.04.51-2.36,2.04-8.14ZM124.17,215.34l9.77-1.49.51,3.34-9.77,1.49-.51-3.34Z"/>
      <path class="cls-1" d="M104.24,213.07l10.45.34-.11,3.38-10.45-.34.11-3.38ZM111.98,213.32l3.76.12-.44,13.39-3.76-.12.43-13.39Z"/>
      <path class="cls-1" d="M87.93,210.21l10.26,2.05-.66,3.31-10.26-2.05.66-3.31ZM95.52,211.73l3.69.74-2.63,13.14-3.69-.74,2.63-13.14Z"/>
      <path class="cls-1" d="M69.8,208.89l4.48,1.92-1.51,3.53-4.48-1.92,1.51-3.53Z"/>
      <path class="cls-1" d="M49.46,190.51l3.05,2.2-7.83,10.88-3.05-2.2,7.83-10.88ZM48,195.67l8.9,6.4-1.97,2.74-8.9-6.4,1.97-2.74ZM57.58,196.35l3.05,2.2-7.83,10.88-3.05-2.2,7.83-10.88Z"/>
      <path class="cls-1" d="M40.73,181.72c1.06,1.13,1.77,2.29,2.12,3.49.35,1.2.35,2.37,0,3.5s-1.04,2.18-2.06,3.14c-1.02.96-2.11,1.58-3.26,1.86-1.15.28-2.32.21-3.5-.21-1.18-.42-2.29-1.2-3.35-2.32-1.1-1.17-1.82-2.35-2.17-3.55-.35-1.2-.35-2.37,0-3.5s1.04-2.18,2.05-3.14c1.02-.96,2.11-1.58,3.26-1.86,1.15-.28,2.32-.21,3.5.21,1.18.42,2.31,1.22,3.41,2.38ZM38.11,184.18c-.62-.66-1.17-1.11-1.65-1.36-.48-.25-.96-.28-1.45-.1s-1.06.57-1.7,1.17c-.65.61-1.08,1.16-1.28,1.63-.2.47-.2.96.02,1.45.22.49.64,1.07,1.26,1.73.62.66,1.17,1.11,1.64,1.34.47.24.94.26,1.42.08.48-.18,1.04-.58,1.69-1.19.64-.6,1.07-1.14,1.29-1.61.22-.47.22-.95.02-1.43-.21-.48-.62-1.05-1.24-1.71Z"/>
      <path class="cls-1" d="M25.6,167.94l3.33,5.18-2.85,1.83-3.1-4.83c-.36-.56-.7-.91-1.02-1.04-.32-.13-.78-.01-1.36.36-.57.37-.87.73-.88,1.07-.01.35.16.8.52,1.37l3.1,4.83-2.85,1.83-3.33-5.19c-.58-.9-.91-1.78-.99-2.64s.07-1.67.46-2.42c.4-.75,1.04-1.42,1.94-1.99.89-.57,1.76-.88,2.62-.93s1.67.14,2.41.58,1.41,1.11,1.99,2ZM30.42,169.19l2.03,3.17-11.28,7.23-2.03-3.17,11.28-7.23Z"/>
      <path class="cls-1" d="M18.41,144.01c.47,1.47.61,2.83.42,4.06-.2,1.23-.7,2.29-1.5,3.16-.8.88-1.87,1.53-3.2,1.96-1.33.43-2.58.52-3.74.28s-2.19-.8-3.07-1.69c-.88-.88-1.56-2.06-2.03-3.54-.49-1.52-.64-2.9-.44-4.13s.7-2.29,1.5-3.16c.8-.88,1.87-1.53,3.2-1.96,1.33-.43,2.58-.52,3.74-.28,1.16.24,2.19.8,3.07,1.69.88.89,1.57,2.09,2.06,3.61ZM14.98,145.12c-.28-.86-.58-1.51-.91-1.94-.33-.43-.75-.66-1.27-.71-.52-.05-1.2.06-2.04.33-.85.27-1.47.58-1.86.92-.39.34-.59.78-.6,1.32-.02.54.12,1.24.39,2.1.28.86.58,1.5.9,1.92s.74.64,1.25.68c.51.04,1.19-.08,2.04-.35.84-.27,1.46-.57,1.85-.9.4-.33.61-.76.63-1.28.02-.52-.11-1.22-.39-2.08Z"/>
      <path class="cls-1" d="M14.46,128.28l.45,3.73-13.31,1.59-.47-3.97,4.54-4.29,2.83-2.31-.03-.26-2.88.53-5.14.62-.45-3.73,13.31-1.59.47,3.97-4.65,4.54-2.42,2,.03.26,2.52-.46,5.2-.62Z"/>
      <path class="cls-1" d="M14.6,99.1c-.22,1.53-.68,2.81-1.4,3.82-.72,1.02-1.63,1.74-2.73,2.18-1.11.44-2.35.56-3.74.36s-2.55-.66-3.49-1.38c-.94-.73-1.61-1.68-2.02-2.85-.41-1.18-.5-2.53-.28-4.06.21-1.49.62-2.74,1.22-3.74.6-1,1.36-1.72,2.29-2.17.93-.45,1.98-.59,3.17-.42l.34.05-.59,4.16-.34-.05c-.75-.11-1.32.03-1.7.41-.38.38-.65,1.11-.81,2.21-.13.9-.14,1.61-.03,2.13.11.52.38.91.82,1.18.44.26,1.1.46,1.99.58.87.12,1.56.12,2.06-.01.5-.13.88-.43,1.13-.9.25-.47.44-1.15.56-2.05.16-1.1.1-1.88-.16-2.35-.26-.47-.77-.76-1.52-.86l-.34-.05.59-4.16.34.05c1.17.17,2.15.59,2.92,1.28.77.69,1.31,1.6,1.6,2.72.3,1.13.34,2.44.13,3.93Z"/>
      <path class="cls-1" d="M17.7,83.87l-1.41,3.98-10.7-9.93,1.8-5.07,14.57-.98-1.44,4.07-8.36.41-2.42.07-.09.25,1.84,1.57,6.21,5.64ZM18.4,74.49l-3.3,9.31-3.19-1.13,3.3-9.31,3.19,1.13Z"/>
      <path class="cls-1" d="M25.96,64.71l-1.89,3.25-11.58-6.74,1.89-3.25,11.58,6.74ZM29.85,58.02l-5.26,9.04-2.92-1.7,5.26-9.04,2.92,1.7Z"/>
      <path class="cls-1" d="M35.17,50.98l-2.4,2.89-10.32-8.55,2.4-2.89,10.32,8.55ZM40.11,45.02l-6.68,8.05-2.6-2.16,6.68-8.05,2.6,2.16Z"/>
      <path class="cls-1" d="M49.86,29.67l-3.81,3.04-2.4-3,3.81-3.04,2.4,3Z"/>
    </g>
  </g>
</svg>