<?xml version="1.0" encoding="UTF-8"?>
<svg id="Layer_2" xmlns="http://www.w3.org/2000/svg" viewBox="0 0 18 18">
  <defs>
    <style>
      .cls-1 {
        fill: #fff;
      }
    </style>
  </defs>
  <g id="Layer_1-2" data-name="Layer_1">
    <path class="cls-1" d="M17.78,12.31c-.15-.17-.35-.29-.58-.36l-3.45-.7c-.23-.03-.47-.01-.71.06-.24.08-.44.19-.59.34l-2.35,2.35c-.63-.37-1.23-.77-1.8-1.21s-1.11-.92-1.62-1.44c-.55-.53-1.06-1.09-1.52-1.66-.46-.58-.85-1.17-1.18-1.79l2.42-2.45c.13-.13.23-.29.28-.48.05-.18.05-.4.02-.67l-.65-3.5c-.03-.22-.14-.4-.32-.56-.19-.16-.4-.24-.63-.24H1.05c-.3,0-.55.1-.75.3s-.3.45-.3.75c0,2.08.45,4.14,1.36,6.17.91,2.04,2.2,3.89,3.87,5.55,1.66,1.67,3.51,2.96,5.55,3.87,2.03.91,4.09,1.36,6.17,1.36.3,0,.55-.1.75-.3s.3-.45.3-.75v-4.05c0-.22-.07-.41-.22-.59Z"/>
  </g>
</svg>