<svg width="367" height="59" viewBox="0 0 367 59" fill="none" xmlns="http://www.w3.org/2000/svg">
<path d="M3.26953 7.79297C2.50391 7.48307 1.86589 7.04557 1.35547 6.48047C0.863281 5.91536 0.46224 5.25 0.152344 4.48438C0.334635 3.99219 0.626302 3.58203 1.02734 3.25391C1.42839 2.90755 1.875 2.61589 2.36719 2.37891C2.8776 2.14193 3.41536 1.95052 3.98047 1.80469C4.54557 1.65885 5.09245 1.53125 5.62109 1.42188C5.73047 1.45833 5.78516 1.45833 5.78516 1.42188C5.78516 1.38542 5.83073 1.40365 5.92188 1.47656C6.57812 1.27604 7.33464 1.08464 8.19141 0.902344C9.04818 0.701823 9.95964 0.628906 10.9258 0.683594C11.0534 0.610677 11.2083 0.574219 11.3906 0.574219C11.5729 0.55599 11.7643 0.546875 11.9648 0.546875C12.1654 0.546875 12.3568 0.546875 12.5391 0.546875C12.7214 0.528646 12.8763 0.492188 13.0039 0.4375C13.1133 0.565104 13.2773 0.647135 13.4961 0.683594C13.7148 0.701823 13.9427 0.792969 14.1797 0.957031C14.2526 0.97526 14.2526 0.947917 14.1797 0.875C14.1068 0.783854 14.1159 0.720052 14.207 0.683594C14.444 0.683594 14.6536 0.738281 14.8359 0.847656C15.0182 0.957031 15.1823 1.08464 15.3281 1.23047C15.4922 1.35807 15.638 1.47656 15.7656 1.58594C15.9115 1.69531 16.0664 1.75 16.2305 1.75C16.3945 1.95052 16.5859 2.14193 16.8047 2.32422C17.0417 2.48828 17.2604 2.66146 17.4609 2.84375C17.6797 3.02604 17.8529 3.22656 17.9805 3.44531C18.1263 3.66406 18.1992 3.91016 18.1992 4.18359C18.181 4.29297 18.2174 4.35677 18.3086 4.375C18.3997 4.39323 18.4635 4.44792 18.5 4.53906C18.5182 5.21354 18.4089 5.79688 18.1719 6.28906C17.9531 6.78125 17.6706 7.23698 17.3242 7.65625C16.9779 8.05729 16.6042 8.4401 16.2031 8.80469C15.8203 9.16927 15.4648 9.5612 15.1367 9.98047C15.3555 10.2539 15.6016 10.5091 15.875 10.7461C16.1667 10.9648 16.4583 11.1836 16.75 11.4023C17.0417 11.6211 17.3151 11.8581 17.5703 12.1133C17.8438 12.3503 18.0716 12.6237 18.2539 12.9336C18.3086 13.043 18.4271 13.1159 18.6094 13.1523C18.6641 13.3711 18.737 13.599 18.8281 13.8359C18.9375 14.0547 19.0378 14.2734 19.1289 14.4922C19.2201 14.6927 19.2747 14.875 19.293 15.0391C19.3112 15.2031 19.2656 15.3398 19.1562 15.4492C19.2839 15.5221 19.3568 15.6406 19.375 15.8047C19.3932 15.9505 19.3932 16.069 19.375 16.1602C18.974 16.6523 18.7005 16.9987 18.5547 17.1992C18.4089 17.3997 18.2995 17.5456 18.2266 17.6367C18.1536 17.7279 18.0807 17.8099 18.0078 17.8828C17.9349 17.9557 17.7708 18.1016 17.5156 18.3203C16.5495 18.9036 15.5378 19.4323 14.4805 19.9062C13.4414 20.362 12.3568 20.6719 11.2266 20.8359C11.1354 20.9635 10.9987 21.0638 10.8164 21.1367C10.6523 21.2279 10.4609 21.3008 10.2422 21.3555C10.0234 21.4102 9.78646 21.4557 9.53125 21.4922C9.29427 21.5286 9.07552 21.5651 8.875 21.6016C8.78385 21.5651 8.72917 21.5013 8.71094 21.4102C8.71094 21.3372 8.66536 21.2826 8.57422 21.2461C8.55599 21.4648 8.45573 21.5742 8.27344 21.5742C8.10938 21.5924 7.89974 21.556 7.64453 21.4648C7.38932 21.3737 7.125 21.2461 6.85156 21.082C6.57812 20.918 6.34115 20.763 6.14062 20.6172C6.04948 20.7812 5.93099 20.9544 5.78516 21.1367C5.65755 21.319 5.52083 21.4466 5.375 21.5195C5.11979 21.4831 4.92839 21.4557 4.80078 21.4375C4.69141 21.4193 4.58203 21.4648 4.47266 21.5742C4.32682 21.5013 4.21745 21.4193 4.14453 21.3281C4.07161 21.2552 3.9987 21.1732 3.92578 21.082C3.85286 21.0091 3.77083 20.9453 3.67969 20.8906C3.58854 20.8177 3.45182 20.7539 3.26953 20.6992C3.30599 20.6081 3.27865 20.4714 3.1875 20.2891C3.09635 20.0885 2.96875 19.9701 2.80469 19.9336C2.89583 19.7878 2.85938 19.6055 2.69531 19.3867C2.53125 19.1497 2.40365 18.8854 2.3125 18.5938C2.33073 18.4661 2.33984 18.3385 2.33984 18.2109C2.35807 18.0651 2.3763 17.9375 2.39453 17.8281C2.43099 17.7005 2.47656 17.5911 2.53125 17.5C2.58594 17.4089 2.67708 17.3451 2.80469 17.3086C2.78646 17.0716 2.71354 16.8438 2.58594 16.625C2.75 16.4974 2.85938 16.3424 2.91406 16.1602C2.96875 15.9596 3.01432 15.7591 3.05078 15.5586C3.10547 15.3581 3.16927 15.1667 3.24219 14.9844C3.3151 14.7839 3.43359 14.6198 3.59766 14.4922C3.5612 14.4375 3.52474 14.3919 3.48828 14.3555C3.45182 14.319 3.43359 14.2552 3.43359 14.1641C3.70703 13.7083 3.89844 13.3255 4.00781 13.0156C4.11719 12.6875 4.19922 12.3776 4.25391 12.0859C4.32682 11.776 4.39974 11.4479 4.47266 11.1016C4.54557 10.7552 4.69141 10.3177 4.91016 9.78906C4.89193 9.46094 4.92839 9.16927 5.01953 8.91406C5.11068 8.65885 5.20182 8.41276 5.29297 8.17578C5.40234 7.92057 5.48438 7.65625 5.53906 7.38281C5.59375 7.10938 5.58464 6.79036 5.51172 6.42578C5.20182 6.46224 4.97396 6.57161 4.82812 6.75391C4.70052 6.9362 4.61849 7.18229 4.58203 7.49219C4.41797 7.63802 4.20833 7.71094 3.95312 7.71094C3.69792 7.69271 3.47005 7.72005 3.26953 7.79297ZM15.3008 13.0703C14.6081 12.6875 13.9701 12.4596 13.3867 12.3867C12.8216 12.3138 12.2747 12.3229 11.7461 12.4141C11.2357 12.487 10.7435 12.5964 10.2695 12.7422C9.79557 12.888 9.32161 12.9974 8.84766 13.0703C8.61068 13.6901 8.36458 14.3737 8.10938 15.1211C7.85417 15.8685 7.60807 16.5977 7.37109 17.3086C8.02734 17.2174 8.62891 17.0807 9.17578 16.8984C9.72266 16.7161 10.2513 16.5156 10.7617 16.2969C11.2721 16.0599 11.7734 15.832 12.2656 15.6133C12.7578 15.3763 13.2682 15.1576 13.7969 14.957C13.8516 14.7383 13.9701 14.5651 14.1523 14.4375C14.3346 14.3099 14.5169 14.1914 14.6992 14.082C14.8815 13.9544 15.0365 13.8177 15.1641 13.6719C15.2917 13.526 15.3372 13.3255 15.3008 13.0703ZM13.3867 4.51172C12.2565 4.47526 11.1445 4.57552 10.0508 4.8125C8.95703 5.04948 8.03646 5.39583 7.28906 5.85156C7.65365 6.16146 8.02734 6.4349 8.41016 6.67188C8.8112 6.90885 9.11198 7.22786 9.3125 7.62891C10.1875 7.28255 10.9531 6.84505 11.6094 6.31641C12.2656 5.76953 12.8581 5.16797 13.3867 4.51172Z" fill="#FF6161"/>
<path d="M22.3139 20.0703C22.1681 19.9245 22.0587 19.7513 21.9858 19.5508C21.9311 19.3503 21.7853 19.1862 21.5483 19.0586C21.5118 18.7852 21.4571 18.4753 21.3842 18.1289C21.3295 17.7643 21.2657 17.3997 21.1928 17.0352C21.1381 16.6523 21.0926 16.2786 21.0561 15.9141C21.0379 15.5312 21.0561 15.1849 21.1108 14.875C21.1472 14.7109 21.2019 14.556 21.2748 14.4102C21.366 14.2643 21.448 14.1276 21.5209 14C21.6121 13.8542 21.6759 13.7083 21.7123 13.5625C21.767 13.4167 21.7761 13.2708 21.7397 13.125C21.8491 13.1068 21.9129 13.0521 21.9311 12.9609C21.9676 12.8516 22.0587 12.8151 22.2045 12.8516C22.3321 12.4505 22.4689 12.0768 22.6147 11.7305C22.7605 11.3841 22.9155 11.0469 23.0795 10.7188C23.2436 10.3906 23.4077 10.0625 23.5717 9.73438C23.754 9.38802 23.9181 9.00521 24.0639 8.58594C23.754 8.29427 23.5261 7.98438 23.3803 7.65625C23.2527 7.3099 23.1524 6.96354 23.0795 6.61719C23.0066 6.27083 22.9519 5.92448 22.9155 5.57812C22.879 5.21354 22.8061 4.84896 22.6967 4.48438C22.9155 4.15625 23.1798 3.89193 23.4897 3.69141C23.7996 3.47266 24.1368 3.29948 24.5014 3.17188C24.8842 3.02604 25.2944 2.91667 25.7319 2.84375C26.1694 2.7526 26.6342 2.65234 27.1264 2.54297C28.0014 2.26953 28.7853 2.0599 29.478 1.91406C30.1707 1.75 30.8452 1.6224 31.5014 1.53125C32.1577 1.42188 32.8412 1.33073 33.5522 1.25781C34.2631 1.16667 35.0834 1.03906 36.0131 0.875C36.0314 0.929688 36.0587 0.957031 36.0952 0.957031C36.1498 0.957031 36.2136 0.957031 36.2866 0.957031C36.3412 1.08464 36.4415 1.14844 36.5873 1.14844C36.5873 1.09375 36.5782 1.04818 36.56 1.01172C36.56 0.957031 36.56 0.911458 36.56 0.875C36.5965 0.875 36.642 0.884115 36.6967 0.902344C36.7696 0.920573 36.8243 0.938802 36.8608 0.957031C36.9155 0.97526 36.961 0.97526 36.9975 0.957031C37.034 0.920573 37.0431 0.856771 37.0248 0.765625C37.2436 1.14844 37.5261 1.46745 37.8725 1.72266C38.2189 1.95964 38.6017 2.16927 39.0209 2.35156C39.0392 2.51562 39.0392 2.63411 39.0209 2.70703C39.0209 2.77995 39.0118 2.85286 38.9936 2.92578C38.9754 2.98047 38.9662 3.05339 38.9662 3.14453C38.9662 3.21745 38.9845 3.32682 39.0209 3.47266C38.7293 3.96484 38.392 4.34766 38.0092 4.62109C37.6446 4.89453 37.2527 5.10417 36.8334 5.25C36.4142 5.39583 35.9675 5.50521 35.4936 5.57812C35.0379 5.65104 34.5639 5.73307 34.0717 5.82422C33.5978 5.89714 33.1147 6.00651 32.6225 6.15234C32.1303 6.29818 31.6472 6.51693 31.1733 6.80859C31.0274 6.75391 30.8907 6.73568 30.7631 6.75391C30.6537 6.75391 30.5353 6.77214 30.4077 6.80859C30.2801 6.84505 30.1342 6.88151 29.9702 6.91797C29.8243 6.95443 29.642 6.95443 29.4233 6.91797C29.2774 7.04557 29.1043 7.13672 28.9037 7.19141C28.7215 7.24609 28.5301 7.30078 28.3295 7.35547C28.4207 7.55599 28.4571 7.75651 28.4389 7.95703C28.4389 8.15755 28.4662 8.33073 28.5209 8.47656C29.2866 8.54948 30.1342 8.54948 31.0639 8.47656C31.9936 8.38542 32.905 8.32161 33.7983 8.28516C33.8165 8.3763 33.8074 8.4401 33.7709 8.47656C33.7345 8.51302 33.7162 8.57682 33.7162 8.66797C33.8803 8.77734 34.0353 8.91406 34.1811 9.07812C34.3269 9.24219 34.4728 9.40625 34.6186 9.57031C34.7827 9.71615 34.9467 9.84375 35.1108 9.95312C35.2748 10.0443 35.4662 10.0807 35.685 10.0625C35.7761 10.2448 35.8399 10.4362 35.8764 10.6367C35.9129 10.8372 35.8855 11.0469 35.7944 11.2656C35.4298 11.5026 35.0743 11.7487 34.728 12.0039C34.3816 12.2409 34.017 12.4596 33.6342 12.6602C33.2696 12.8607 32.8686 13.0247 32.4311 13.1523C31.9936 13.2799 31.5196 13.3346 31.0092 13.3164C30.9181 13.3164 30.836 13.3164 30.7631 13.3164C30.7084 13.3164 30.6355 13.2799 30.5444 13.207C30.3621 13.2982 30.116 13.3346 29.8061 13.3164C29.5144 13.2799 29.2683 13.3073 29.0678 13.3984C28.8126 13.3073 28.5118 13.2617 28.1655 13.2617C27.8373 13.2617 27.5457 13.2161 27.2905 13.125C26.9623 13.599 26.6524 14.1003 26.3608 14.6289C26.0691 15.1393 25.8139 15.6862 25.5952 16.2695C26.3426 16.3789 26.9623 16.4245 27.4545 16.4062C27.9467 16.388 28.4116 16.3516 28.8491 16.2969C29.2866 16.2422 29.7332 16.1875 30.1889 16.1328C30.6629 16.0781 31.2371 16.0599 31.9116 16.0781C32.3673 15.8594 32.8868 15.7135 33.4702 15.6406C34.0717 15.5495 34.6277 15.4219 35.1381 15.2578C35.3204 15.3125 35.4754 15.4219 35.603 15.5859C35.7306 15.7318 35.8491 15.8867 35.9584 16.0508C36.086 16.1966 36.2136 16.3242 36.3412 16.4336C36.4689 16.543 36.6329 16.5794 36.8334 16.543C36.9246 16.6341 36.9793 16.7435 36.9975 16.8711C37.034 16.9987 37.0613 17.1172 37.0795 17.2266C37.116 17.3359 37.1616 17.4271 37.2162 17.5C37.2709 17.5547 37.3712 17.5729 37.517 17.5547C37.1707 18.2656 36.7787 18.8125 36.3412 19.1953C35.922 19.5781 35.4389 19.8789 34.892 20.0977C34.3634 20.2982 33.7618 20.4531 33.0873 20.5625C32.4311 20.6536 31.6928 20.7721 30.8725 20.918C30.672 20.9544 30.4988 20.9544 30.353 20.918C30.2254 20.8633 30.0886 20.8359 29.9428 20.8359C29.4324 20.9271 28.8217 21.0182 28.1108 21.1094C27.4181 21.2005 26.7162 21.237 26.0053 21.2188C25.2944 21.2005 24.6108 21.1094 23.9545 20.9453C23.2983 20.7812 22.7514 20.4896 22.3139 20.0703Z" fill="#FF6161"/>
<path d="M39.2528 8.66797C39.3075 8.39453 39.344 8.17578 39.3622 8.01172C39.3804 7.82943 39.3166 7.63802 39.1708 7.4375C39.2437 7.14583 39.2984 6.91797 39.3348 6.75391C39.3895 6.58984 39.3986 6.36198 39.3622 6.07031C39.5262 5.59635 39.7723 5.19531 40.1005 4.86719C40.4468 4.53906 40.8205 4.26562 41.2216 4.04688C41.6226 3.8099 42.0419 3.61849 42.4794 3.47266C42.9169 3.30859 43.327 3.17188 43.7098 3.0625C43.7098 2.98958 43.6734 2.95312 43.6005 2.95312C43.5276 2.95312 43.5093 2.90755 43.5458 2.81641C44.5302 2.63411 45.5145 2.36979 46.4989 2.02344C47.5015 1.67708 48.5223 1.36719 49.5614 1.09375C50.6005 0.820312 51.6669 0.65625 52.7606 0.601562C53.8544 0.528646 55.0028 0.665365 56.2059 1.01172C56.2789 1.23047 56.3791 1.4401 56.5067 1.64062C56.6343 1.84115 56.7619 2.04167 56.8895 2.24219C57.0354 2.42448 57.163 2.60677 57.2723 2.78906C57.3817 2.97135 57.4455 3.16276 57.4637 3.36328C57.6825 3.5638 57.8557 3.78255 57.9833 4.01953C58.1291 4.23828 58.1565 4.53906 58.0653 4.92188C57.8648 5.06771 57.6552 5.21354 57.4364 5.35938C57.2177 5.50521 56.9898 5.64193 56.7528 5.76953C55.9325 5.56901 55.1122 5.49609 54.2919 5.55078C53.4716 5.60547 52.7333 5.66927 52.077 5.74219C51.8765 5.52344 51.6395 5.42318 51.3661 5.44141C51.0927 5.44141 50.801 5.48698 50.4911 5.57812C50.1994 5.65104 49.9078 5.73307 49.6161 5.82422C49.3244 5.89714 49.051 5.91536 48.7958 5.87891C48.5953 6.0612 48.3309 6.1888 48.0028 6.26172C47.6747 6.31641 47.3283 6.36198 46.9637 6.39844C46.9455 6.48958 46.9637 6.55339 47.0184 6.58984C47.0731 6.6263 47.0822 6.69922 47.0458 6.80859C47.1734 6.97266 47.3466 7.09115 47.5653 7.16406C47.7841 7.21875 48.0028 7.27344 48.2216 7.32812C48.4585 7.38281 48.6682 7.46484 48.8505 7.57422C49.0328 7.66536 49.1512 7.82031 49.2059 8.03906C49.5341 8.05729 49.8166 8.14844 50.0536 8.3125C50.2906 8.45833 50.4911 8.64062 50.6552 8.85938C50.8192 9.07812 50.9377 9.3151 51.0106 9.57031C51.0835 9.80729 51.1109 10.026 51.0927 10.2266C51.1656 10.4089 51.2385 10.4818 51.3114 10.4453C51.4026 10.4089 51.5028 10.4544 51.6122 10.582C51.6851 10.8555 51.8492 11.1471 52.1044 11.457C52.3778 11.7487 52.5874 12.0677 52.7333 12.4141C52.7697 12.9609 52.7971 13.4531 52.8153 13.8906C52.8518 14.3281 52.7789 14.7565 52.5966 15.1758C52.2867 15.9779 51.8401 16.6979 51.2567 17.3359C50.6734 17.974 50.008 18.5391 49.2606 19.0312C48.5315 19.5052 47.7567 19.9245 46.9364 20.2891C46.1161 20.6354 45.3049 20.9271 44.5028 21.1641C44.4299 21.1458 44.3387 21.1458 44.2294 21.1641C44.1382 21.1823 44.12 21.1276 44.1747 21C44.0106 21.1458 43.8192 21.237 43.6005 21.2734C43.3999 21.3099 43.1721 21.319 42.9169 21.3008C42.6799 21.3008 42.4338 21.2917 42.1786 21.2734C41.9416 21.2552 41.7046 21.2643 41.4677 21.3008C41.3218 21.1549 41.1851 21.0091 41.0575 20.8633C40.9481 20.7174 40.857 20.5443 40.7841 20.3438C40.6929 20.3255 40.6473 20.2708 40.6473 20.1797C40.6656 20.0703 40.6291 20.0156 40.538 20.0156C40.538 19.9427 40.5471 19.888 40.5653 19.8516C40.5835 19.8151 40.6018 19.7786 40.62 19.7422C40.6929 19.6875 40.7203 19.651 40.702 19.6328C40.702 19.5964 40.6747 19.569 40.62 19.5508C40.5835 19.5143 40.538 19.4779 40.4833 19.4414C40.4468 19.4049 40.4377 19.3594 40.4559 19.3047C40.5471 19.1406 40.5744 18.9492 40.538 18.7305C40.5197 18.4935 40.5015 18.2565 40.4833 18.0195C40.4651 17.7826 40.4833 17.5638 40.538 17.3633C40.5927 17.1445 40.7476 16.9622 41.0028 16.8164C41.7502 16.8893 42.452 16.8529 43.1083 16.707C43.7828 16.5612 44.4117 16.3607 44.995 16.1055C45.5966 15.8503 46.1617 15.5768 46.6903 15.2852C47.2372 14.9753 47.7658 14.6927 48.2762 14.4375C48.3309 14.2552 48.413 14.1003 48.5223 13.9727C48.6499 13.8451 48.7776 13.7266 48.9052 13.6172C49.0328 13.4896 49.1512 13.362 49.2606 13.2344C49.37 13.0885 49.452 12.9154 49.5067 12.7148C49.5249 12.6419 49.5249 12.5872 49.5067 12.5508C49.4885 12.5143 49.4611 12.487 49.4247 12.4688C49.3882 12.4323 49.3518 12.3958 49.3153 12.3594C49.2789 12.3229 49.2606 12.2682 49.2606 12.1953C49.2059 12.1771 49.1512 12.1589 49.0966 12.1406C49.0601 12.1224 49.0236 12.1133 48.9872 12.1133C48.5132 11.8763 48.0119 11.6758 47.4833 11.5117C46.9546 11.3477 46.508 11.1654 46.1434 10.9648C45.9247 11.1107 45.7059 11.1471 45.4872 11.0742C45.2684 11.0013 45.0041 10.9284 44.6942 10.8555C43.9286 10.819 43.1994 10.7461 42.5067 10.6367C41.8322 10.5273 41.176 10.3359 40.538 10.0625C40.5015 9.95312 40.4559 9.86198 40.4012 9.78906C40.3466 9.69792 40.219 9.67057 40.0184 9.70703C39.8908 9.52474 39.7541 9.36068 39.6083 9.21484C39.4807 9.05078 39.3622 8.86849 39.2528 8.66797Z" fill="#FF6161"/>
<path d="M56.1917 5.57812C56.1735 5.43229 56.137 5.30469 56.0823 5.19531C56.0459 5.06771 56.0003 4.93099 55.9456 4.78516C55.8545 4.56641 55.7724 4.32943 55.6995 4.07422C55.6266 3.81901 55.5902 3.51823 55.5902 3.17188C55.6266 2.98958 55.6722 2.86198 55.7269 2.78906C55.7816 2.69792 55.8363 2.625 55.8909 2.57031L56.0003 2.07812H56.4105C56.5563 2.09635 56.7021 2.10547 56.848 2.10547C57.012 2.10547 57.167 2.10547 57.3128 2.10547C58.0055 2.10547 58.7165 2.07812 59.4456 2.02344C60.1748 1.96875 60.9222 1.90495 61.6878 1.83203C62.5264 1.72266 63.4287 1.64062 64.3948 1.58594C64.486 1.38542 64.5407 1.25781 64.5589 1.20312C64.5954 1.14844 64.6318 1.08464 64.6683 1.01172L64.9691 0.847656C65.3883 0.829427 65.68 0.884115 65.8441 1.01172C66.0081 1.12109 66.1357 1.23047 66.2269 1.33984C66.7008 1.30339 67.1839 1.25781 67.6761 1.20312C68.1683 1.13021 68.6787 1.05729 69.2073 0.984375C69.9365 0.893229 70.6748 0.802083 71.4222 0.710938C72.1696 0.619792 72.8988 0.574219 73.6097 0.574219C73.9196 0.574219 74.2113 0.583333 74.4847 0.601562C74.7581 0.619792 75.0224 0.647135 75.2777 0.683594L75.6058 0.929688C75.6787 1.05729 75.7698 1.17578 75.8792 1.28516C75.9886 1.39453 76.1162 1.50391 76.262 1.61328C76.5355 1.83203 76.7998 2.10547 77.055 2.43359C77.3284 2.76172 77.4287 3.24479 77.3558 3.88281L77.2191 4.15625C77.1461 4.22917 77.055 4.30208 76.9456 4.375L76.6722 4.73047H76.3714C76.1891 4.73047 76.0524 4.7487 75.9613 4.78516C75.8701 4.80339 75.7607 4.83984 75.6331 4.89453C75.5602 4.93099 75.4782 4.96745 75.387 5.00391C75.2959 5.02214 75.1956 5.04948 75.0863 5.08594C74.8857 5.06771 74.7308 5.05859 74.6214 5.05859C74.512 5.05859 74.3844 5.05859 74.2386 5.05859C73.6917 5.05859 73.0993 5.09505 72.4613 5.16797C71.8232 5.24089 71.2034 5.32292 70.6019 5.41406C70.1644 5.46875 69.7451 5.52344 69.3441 5.57812C68.943 5.61458 68.5784 5.65104 68.2503 5.6875C68.068 6.16146 67.904 6.58073 67.7581 6.94531C67.6123 7.3099 67.4573 7.67448 67.2933 8.03906C67.1292 8.40365 66.9743 8.77734 66.8284 9.16016C66.6826 9.52474 66.5459 9.9349 66.4183 10.3906C66.1995 10.7188 66.0172 11.0378 65.8714 11.3477C65.7256 11.6393 65.6071 11.9766 65.5159 12.3594C65.2425 12.6693 65.042 13.0065 64.9144 13.3711C64.805 13.7357 64.7047 14.0456 64.6136 14.3008L64.5042 14.7109C64.3766 14.8385 64.2946 14.9388 64.2581 15.0117C64.2399 15.0846 64.1943 15.1667 64.1214 15.2578C64.0667 15.4948 63.9938 15.7227 63.9027 15.9414C63.8662 16.0326 63.8297 16.1328 63.7933 16.2422C63.7568 16.3333 63.7477 16.4062 63.7659 16.4609C63.7295 16.6615 63.6748 16.8164 63.6019 16.9258C63.6019 17.0352 63.5928 17.1445 63.5745 17.2539C63.5563 17.3633 63.5381 17.4727 63.5198 17.582C63.4834 17.7096 63.456 17.8281 63.4378 17.9375C63.4196 18.0286 63.4287 18.1198 63.4652 18.2109C63.5198 18.2839 63.5745 18.3568 63.6292 18.4297C63.6839 18.5026 63.7295 18.5938 63.7659 18.7031C63.8024 18.7396 63.848 18.7669 63.9027 18.7852C63.9573 18.8034 64.0029 18.8307 64.0394 18.8672C64.1852 18.9948 64.3219 19.0677 64.4495 19.0859L64.723 19.4141C64.8323 20.0703 64.7321 20.5807 64.4222 20.9453C64.0941 21.3646 63.5472 21.5742 62.7816 21.5742L62.3988 21.5469C62.2711 21.4193 62.1982 21.3372 62.18 21.3008C62.0159 21.2279 61.8792 21.1641 61.7698 21.1094C61.6605 21.0729 61.5602 20.9909 61.4691 20.8633C61.4326 20.8268 61.387 20.8086 61.3323 20.8086C61.2777 20.7904 61.2321 20.763 61.1956 20.7266C61.0133 20.6719 60.8675 20.6081 60.7581 20.5352L60.4573 20.3711C60.4756 20.1888 60.4847 20.0612 60.4847 19.9883C60.3389 19.7878 60.2204 19.569 60.1292 19.332C60.0563 19.0951 59.9925 18.849 59.9378 18.5938C59.8831 18.3932 59.8284 18.2109 59.7738 18.0469C59.7373 17.8828 59.6735 17.737 59.5823 17.6094C59.5459 16.3333 59.6644 15.2669 59.9378 14.4102C60.2113 13.5352 60.512 12.6875 60.8402 11.8672C61.0224 11.4297 61.1956 10.9831 61.3597 10.5273C61.5238 10.0716 61.6696 9.60677 61.7972 9.13281L62.098 8.83203C62.2256 8.72266 62.3076 8.65885 62.3441 8.64062C62.3441 8.40365 62.3896 8.17578 62.4808 7.95703C62.5719 7.72005 62.6722 7.48307 62.7816 7.24609C62.8545 7.10026 62.9183 6.95443 62.973 6.80859C63.0459 6.66276 63.0915 6.53516 63.1097 6.42578C62.9821 6.42578 62.8636 6.4349 62.7542 6.45312C62.6631 6.45312 62.5628 6.46224 62.4534 6.48047C62.2165 6.53516 61.9886 6.5625 61.7698 6.5625C61.6058 6.5625 61.4873 6.55339 61.4144 6.53516C61.2685 6.60807 61.1318 6.65365 61.0042 6.67188C60.8766 6.67188 60.749 6.67188 60.6214 6.67188H59.9652C59.7464 6.67188 59.5732 6.69922 59.4456 6.75391C59.1904 6.75391 59.0264 6.75391 58.9534 6.75391C58.8805 6.75391 58.7985 6.75391 58.7073 6.75391H58.0511C57.9053 6.75391 57.7412 6.74479 57.5589 6.72656C57.3766 6.6901 57.1852 6.61719 56.9847 6.50781L56.7933 6.28906C56.6839 6.08854 56.5836 5.97917 56.4925 5.96094L56.1917 5.87891V5.57812Z" fill="#FF6161"/>
<path d="M90.6711 21.1094C89.869 21.2188 89.1398 21.1823 88.4836 21C87.8273 20.8177 87.2349 20.5352 86.7063 20.1523C86.1958 19.7695 85.7492 19.3138 85.3664 18.7852C85.0018 18.2565 84.701 17.6914 84.4641 17.0898C84.3 15.8503 84.3456 14.7292 84.6008 13.7266C84.856 12.7057 85.2297 11.7669 85.7219 10.9102C86.2141 10.0534 86.7701 9.2513 87.3898 8.50391C88.0279 7.75651 88.6385 7.03646 89.2219 6.34375C89.3495 6.39844 89.4497 6.39844 89.5227 6.34375C89.6138 6.28906 89.6867 6.21615 89.7414 6.125C89.8143 6.03385 89.8872 5.94271 89.9602 5.85156C90.0513 5.76042 90.1516 5.69661 90.2609 5.66016C90.3339 5.49609 90.425 5.35938 90.5344 5.25C90.662 5.14062 90.7896 5.04036 90.9172 4.94922C91.063 4.83984 91.1906 4.73047 91.3 4.62109C91.4276 4.51172 91.537 4.375 91.6281 4.21094C91.8104 4.17448 91.9654 4.11068 92.093 4.01953C92.2388 3.92839 92.3664 3.82812 92.4758 3.71875C92.6034 3.60938 92.731 3.50911 92.8586 3.41797C92.9862 3.32682 93.1411 3.25391 93.3234 3.19922V2.84375C93.7245 2.66146 94.0161 2.46094 94.1984 2.24219C94.3807 2.02344 94.5995 1.74089 94.8547 1.39453C95.0552 1.3763 95.2102 1.36719 95.3195 1.36719C95.4471 1.36719 95.6385 1.34896 95.8938 1.3125C96.0578 1.0026 96.2128 0.77474 96.3586 0.628906C96.5044 0.483073 96.7141 0.31901 96.9875 0.136719C97.2609 0.282552 97.5526 0.373698 97.8625 0.410156C98.1724 0.428385 98.455 0.565104 98.7102 0.820312C98.7284 1.03906 98.7922 1.21224 98.9016 1.33984C99.0109 1.44922 99.1294 1.55859 99.257 1.66797C99.3846 1.75911 99.5122 1.85938 99.6398 1.96875C99.7675 2.07812 99.8495 2.23307 99.8859 2.43359C99.9771 2.43359 100.032 2.41536 100.05 2.37891C100.086 2.34245 100.15 2.33333 100.241 2.35156C100.278 2.4974 100.314 2.61589 100.351 2.70703C100.387 2.79818 100.424 2.88021 100.46 2.95312C100.515 3.02604 100.56 3.10807 100.597 3.19922C100.652 3.29036 100.697 3.39974 100.734 3.52734C100.642 3.74609 100.56 3.98307 100.488 4.23828C100.415 4.47526 100.269 4.63932 100.05 4.73047C100.05 4.8763 100.105 4.95833 100.214 4.97656C100.323 4.97656 100.387 5.04036 100.405 5.16797C100.424 5.33203 100.396 5.46875 100.323 5.57812C100.834 6.4349 101.299 7.33724 101.718 8.28516C102.137 9.21484 102.611 10.1081 103.14 10.9648C103.103 11.2201 103.113 11.4753 103.167 11.7305C103.24 11.9674 103.322 12.2044 103.413 12.4414C103.523 12.6784 103.623 12.9154 103.714 13.1523C103.805 13.3893 103.869 13.6263 103.905 13.8633C103.942 14.1732 103.942 14.5104 103.905 14.875C103.869 15.2214 103.796 15.5586 103.687 15.8867C103.577 16.2148 103.432 16.5247 103.249 16.8164C103.067 17.0898 102.857 17.2995 102.62 17.4453C102.329 17.8099 101.964 18.1107 101.527 18.3477C101.089 18.5664 100.688 18.8307 100.323 19.1406C100.068 19.2865 99.7948 19.3958 99.5031 19.4688C99.2115 19.5234 98.9107 19.5872 98.6008 19.6602C98.3638 19.806 98.0813 19.9518 97.7531 20.0977C97.425 20.2253 97.0878 20.3438 96.7414 20.4531C96.3951 20.5625 96.0487 20.6536 95.7023 20.7266C95.356 20.7812 95.0461 20.7904 94.7727 20.7539C94.1164 20.9909 93.4784 21.1549 92.8586 21.2461C92.2388 21.3372 91.5096 21.2917 90.6711 21.1094ZM91.0266 11.1562C90.8443 11.5755 90.6255 11.9583 90.3703 12.3047C90.1333 12.6328 89.8964 12.9701 89.6594 13.3164C89.4224 13.6628 89.2128 14.0365 89.0305 14.4375C88.8664 14.8203 88.7753 15.276 88.757 15.8047C89.1216 16.1146 89.55 16.306 90.0422 16.3789C90.5526 16.4336 91.0721 16.4427 91.6008 16.4062C92.1294 16.3516 92.6581 16.2786 93.1867 16.1875C93.7154 16.0964 94.1893 16.0508 94.6086 16.0508C94.6086 15.8867 94.6815 15.8047 94.8273 15.8047C95.593 15.7318 96.3039 15.5221 96.9602 15.1758C97.6164 14.8112 98.3 14.4466 99.0109 14.082C99.1021 13.8633 99.2206 13.6719 99.3664 13.5078C99.5122 13.3438 99.5943 13.1068 99.6125 12.7969C99.5214 12.6328 99.4576 12.4961 99.4211 12.3867C99.4029 12.2773 99.3938 12.1133 99.3938 11.8945C98.9198 11.2383 98.5096 10.5273 98.1633 9.76172C97.8169 8.97786 97.4159 8.23958 96.9602 7.54688C96.9237 7.63802 96.8508 7.72917 96.7414 7.82031C96.632 7.91146 96.5135 7.89323 96.3859 7.76562C96.3313 7.94792 96.2492 8.07552 96.1398 8.14844C96.0305 8.20312 95.9029 8.23047 95.757 8.23047C95.6294 8.23047 95.4927 8.20312 95.3469 8.14844C95.2193 8.09375 95.1008 8.02083 94.9914 7.92969C94.3534 8.4401 93.7154 8.93229 93.0773 9.40625C92.4576 9.88021 91.8925 10.4362 91.382 11.0742C91.2909 11.1289 91.2362 11.1471 91.218 11.1289C91.1997 11.1107 91.1359 11.1198 91.0266 11.1562Z" fill="#FF6161"/>
<path d="M106.68 15.4492C106.133 15.1393 105.714 14.7018 105.423 14.1367C105.131 13.5716 104.967 13.0339 104.93 12.5234C104.985 12.0859 105.103 11.7487 105.286 11.5117C105.45 11.2565 105.65 11.056 105.887 10.9102C106.124 10.7461 106.37 10.6276 106.626 10.5547C106.881 10.4635 107.127 10.3906 107.364 10.3359L107.774 10.4727C107.865 10.5638 107.956 10.6458 108.048 10.7188C108.157 10.7917 108.257 10.8646 108.348 10.9375C108.531 10.8646 108.64 10.7552 108.676 10.6094C108.731 10.4635 108.786 10.3177 108.84 10.1719C108.895 9.97135 108.959 9.77083 109.032 9.57031C109.105 9.36979 109.196 9.16927 109.305 8.96875C109.287 8.80469 109.296 8.65885 109.333 8.53125C109.369 8.40365 109.406 8.29427 109.442 8.20312C109.333 8.11198 109.251 8.06641 109.196 8.06641C109.159 8.04818 109.087 8.02083 108.977 7.98438C108.923 7.98438 108.868 7.98438 108.813 7.98438C108.758 7.96615 108.695 7.94792 108.622 7.92969C108.348 7.72917 108.166 7.5651 108.075 7.4375C108.002 7.29167 107.92 7.14583 107.829 7C107.738 6.85417 107.656 6.72656 107.583 6.61719C107.51 6.50781 107.428 6.40755 107.337 6.31641L107.008 6.09766L107.173 5.76953C107.209 5.73307 107.227 5.6875 107.227 5.63281C107.227 5.5599 107.191 5.45964 107.118 5.33203C107.063 5.09505 107.054 4.92188 107.09 4.8125L107.145 4.48438C107.327 4.2474 107.428 4.11068 107.446 4.07422L107.719 3.80078C108.139 3.69141 108.567 3.57292 109.005 3.44531C109.442 3.29948 109.87 3.15365 110.29 3.00781C110.709 2.86198 111.137 2.71615 111.575 2.57031C112.012 2.42448 112.45 2.29688 112.887 2.1875C113.033 2.0599 113.188 1.98698 113.352 1.96875C113.534 1.93229 113.699 1.90495 113.844 1.88672C113.972 1.88672 114.09 1.8776 114.2 1.85938C114.309 1.84115 114.391 1.79557 114.446 1.72266C114.756 1.61328 115.057 1.52214 115.348 1.44922C115.895 1.30339 116.615 1.13021 117.508 0.929688C118.402 0.729167 119.404 0.583333 120.516 0.492188L121.09 0.464844C121.2 0.483073 121.309 0.492188 121.419 0.492188C121.528 0.473958 121.637 0.464844 121.747 0.464844C122.695 0.464844 123.324 0.75651 123.633 1.33984C123.816 1.43099 123.98 1.54948 124.126 1.69531C124.271 1.82292 124.408 1.95052 124.536 2.07812C124.627 2.16927 124.709 2.2513 124.782 2.32422C124.855 2.37891 124.919 2.42448 124.973 2.46094L125.192 2.67969C125.393 3.11719 125.429 3.54557 125.301 3.96484C125.192 4.18359 125.074 4.3112 124.946 4.34766C124.818 4.38411 124.691 4.42057 124.563 4.45703L124.208 4.64844C123.971 4.63021 123.788 4.62109 123.661 4.62109C123.551 4.62109 123.424 4.62109 123.278 4.62109C122.731 4.62109 122.093 4.65755 121.364 4.73047C120.653 4.78516 119.924 4.8763 119.176 5.00391C118.429 5.11328 117.7 5.25911 116.989 5.44141C116.278 5.60547 115.658 5.78776 115.13 5.98828C114.984 6.09766 114.792 6.19792 114.555 6.28906C114.501 6.30729 114.419 6.35286 114.309 6.42578C114.327 6.57161 114.327 6.71745 114.309 6.86328C114.291 6.99089 114.264 7.11849 114.227 7.24609C114.209 7.33724 114.191 7.4375 114.173 7.54688C114.173 7.63802 114.163 7.73828 114.145 7.84766C113.762 8.30339 113.58 8.84115 113.598 9.46094L113.462 9.73438C113.389 9.80729 113.325 9.91667 113.27 10.0625C113.234 10.1901 113.234 10.3268 113.27 10.4727L113.38 10.8008C113.744 10.7643 114.1 10.7279 114.446 10.6914C114.811 10.6367 115.193 10.582 115.594 10.5273C116.105 10.4362 116.615 10.3633 117.126 10.3086C117.654 10.2357 118.201 10.1992 118.766 10.1992H119.833L119.587 10.4453L119.887 10.4727L119.723 10.9102C119.851 10.9648 119.942 11.0104 119.997 11.0469C120.07 11.0651 120.133 11.0924 120.188 11.1289L120.38 11.4023C120.471 11.457 120.553 11.5482 120.626 11.6758C120.699 11.7852 120.744 11.9401 120.762 12.1406L120.68 12.4141L119.395 14.0547L119.231 14.2734L118.958 14.1914C118.611 14.1732 118.283 14.2096 117.973 14.3008C117.827 14.3372 117.673 14.3828 117.508 14.4375C117.344 14.474 117.18 14.4922 117.016 14.4922C116.579 14.5651 116.214 14.6289 115.923 14.6836C115.631 14.7201 115.339 14.7565 115.048 14.793C114.646 14.8659 114.255 14.9388 113.872 15.0117C113.507 15.0664 113.161 15.1576 112.833 15.2852C112.632 15.3034 112.514 15.3125 112.477 15.3125C112.441 15.2943 112.404 15.2852 112.368 15.2852C112.186 15.2852 112.003 15.3125 111.821 15.3672C111.639 15.4219 111.465 15.4766 111.301 15.5312C111.192 15.6224 111.119 15.7227 111.083 15.832C111.046 15.9232 111.01 16.0234 110.973 16.1328C110.937 16.2604 110.882 16.388 110.809 16.5156C110.755 16.625 110.682 16.7435 110.59 16.8711L110.618 17.3633C110.454 17.3997 110.372 17.4271 110.372 17.4453C110.372 17.4453 110.363 17.4453 110.344 17.4453C110.344 17.5911 110.317 17.7279 110.262 17.8555C110.226 17.9831 110.189 18.1016 110.153 18.2109C110.117 18.2839 110.089 18.3477 110.071 18.4023C110.053 18.457 110.044 18.5117 110.044 18.5664C110.226 18.8945 110.271 19.2682 110.18 19.6875C110.107 20.0339 109.971 20.3438 109.77 20.6172C109.57 20.8724 109.333 21.0729 109.059 21.2188C108.768 21.2552 108.549 21.2461 108.403 21.1914C108.275 21.1367 108.139 21.082 107.993 21.0273C107.902 20.9909 107.811 20.9635 107.719 20.9453C107.628 20.9089 107.537 20.8815 107.446 20.8633L107.118 20.5898C107.063 20.4805 106.999 20.3802 106.926 20.2891C106.853 20.1797 106.781 20.0703 106.708 19.9609C106.617 19.8333 106.525 19.7057 106.434 19.5781C106.343 19.4505 106.261 19.3047 106.188 19.1406C106.061 18.5026 106.033 17.974 106.106 17.5547C106.197 17.1172 106.316 16.6888 106.462 16.2695C106.498 16.1237 106.534 15.987 106.571 15.8594C106.607 15.7318 106.644 15.5951 106.68 15.4492Z" fill="#FF6161"/>
<path d="M133.667 5.57812C133.649 5.43229 133.613 5.30469 133.558 5.19531C133.522 5.06771 133.476 4.93099 133.421 4.78516C133.33 4.56641 133.248 4.32943 133.175 4.07422C133.102 3.81901 133.066 3.51823 133.066 3.17188C133.102 2.98958 133.148 2.86198 133.203 2.78906C133.257 2.69792 133.312 2.625 133.367 2.57031L133.476 2.07812H133.886C134.032 2.09635 134.178 2.10547 134.324 2.10547C134.488 2.10547 134.643 2.10547 134.789 2.10547C135.481 2.10547 136.192 2.07812 136.921 2.02344C137.651 1.96875 138.398 1.90495 139.164 1.83203C140.002 1.72266 140.904 1.64062 141.871 1.58594C141.962 1.38542 142.016 1.25781 142.035 1.20312C142.071 1.14844 142.108 1.08464 142.144 1.01172L142.445 0.847656C142.864 0.829427 143.156 0.884115 143.32 1.01172C143.484 1.12109 143.612 1.23047 143.703 1.33984C144.177 1.30339 144.66 1.25781 145.152 1.20312C145.644 1.13021 146.154 1.05729 146.683 0.984375C147.412 0.893229 148.151 0.802083 148.898 0.710938C149.645 0.619792 150.375 0.574219 151.085 0.574219C151.395 0.574219 151.687 0.583333 151.96 0.601562C152.234 0.619792 152.498 0.647135 152.753 0.683594L153.082 0.929688C153.154 1.05729 153.246 1.17578 153.355 1.28516C153.464 1.39453 153.592 1.50391 153.738 1.61328C154.011 1.83203 154.276 2.10547 154.531 2.43359C154.804 2.76172 154.904 3.24479 154.832 3.88281L154.695 4.15625C154.622 4.22917 154.531 4.30208 154.421 4.375L154.148 4.73047H153.847C153.665 4.73047 153.528 4.7487 153.437 4.78516C153.346 4.80339 153.237 4.83984 153.109 4.89453C153.036 4.93099 152.954 4.96745 152.863 5.00391C152.772 5.02214 152.671 5.04948 152.562 5.08594C152.362 5.06771 152.207 5.05859 152.097 5.05859C151.988 5.05859 151.86 5.05859 151.714 5.05859C151.167 5.05859 150.575 5.09505 149.937 5.16797C149.299 5.24089 148.679 5.32292 148.078 5.41406C147.64 5.46875 147.221 5.52344 146.82 5.57812C146.419 5.61458 146.054 5.65104 145.726 5.6875C145.544 6.16146 145.38 6.58073 145.234 6.94531C145.088 7.3099 144.933 7.67448 144.769 8.03906C144.605 8.40365 144.45 8.77734 144.304 9.16016C144.158 9.52474 144.022 9.9349 143.894 10.3906C143.675 10.7188 143.493 11.0378 143.347 11.3477C143.201 11.6393 143.083 11.9766 142.992 12.3594C142.718 12.6693 142.518 13.0065 142.39 13.3711C142.281 13.7357 142.181 14.0456 142.089 14.3008L141.98 14.7109C141.852 14.8385 141.77 14.9388 141.734 15.0117C141.716 15.0846 141.67 15.1667 141.597 15.2578C141.542 15.4948 141.47 15.7227 141.378 15.9414C141.342 16.0326 141.306 16.1328 141.269 16.2422C141.233 16.3333 141.223 16.4062 141.242 16.4609C141.205 16.6615 141.151 16.8164 141.078 16.9258C141.078 17.0352 141.069 17.1445 141.05 17.2539C141.032 17.3633 141.014 17.4727 140.996 17.582C140.959 17.7096 140.932 17.8281 140.914 17.9375C140.895 18.0286 140.904 18.1198 140.941 18.2109C140.996 18.2839 141.05 18.3568 141.105 18.4297C141.16 18.5026 141.205 18.5938 141.242 18.7031C141.278 18.7396 141.324 18.7669 141.378 18.7852C141.433 18.8034 141.479 18.8307 141.515 18.8672C141.661 18.9948 141.798 19.0677 141.925 19.0859L142.199 19.4141C142.308 20.0703 142.208 20.5807 141.898 20.9453C141.57 21.3646 141.023 21.5742 140.257 21.5742L139.875 21.5469C139.747 21.4193 139.674 21.3372 139.656 21.3008C139.492 21.2279 139.355 21.1641 139.246 21.1094C139.136 21.0729 139.036 20.9909 138.945 20.8633C138.908 20.8268 138.863 20.8086 138.808 20.8086C138.753 20.7904 138.708 20.763 138.671 20.7266C138.489 20.6719 138.343 20.6081 138.234 20.5352L137.933 20.3711C137.951 20.1888 137.96 20.0612 137.96 19.9883C137.815 19.7878 137.696 19.569 137.605 19.332C137.532 19.0951 137.468 18.849 137.414 18.5938C137.359 18.3932 137.304 18.2109 137.25 18.0469C137.213 17.8828 137.149 17.737 137.058 17.6094C137.022 16.3333 137.14 15.2669 137.414 14.4102C137.687 13.5352 137.988 12.6875 138.316 11.8672C138.498 11.4297 138.671 10.9831 138.835 10.5273C139 10.0716 139.145 9.60677 139.273 9.13281L139.574 8.83203C139.701 8.72266 139.783 8.65885 139.82 8.64062C139.82 8.40365 139.865 8.17578 139.957 7.95703C140.048 7.72005 140.148 7.48307 140.257 7.24609C140.33 7.10026 140.394 6.95443 140.449 6.80859C140.522 6.66276 140.567 6.53516 140.585 6.42578C140.458 6.42578 140.339 6.4349 140.23 6.45312C140.139 6.45312 140.039 6.46224 139.929 6.48047C139.692 6.53516 139.464 6.5625 139.246 6.5625C139.082 6.5625 138.963 6.55339 138.89 6.53516C138.744 6.60807 138.608 6.65365 138.48 6.67188C138.352 6.67188 138.225 6.67188 138.097 6.67188H137.441C137.222 6.67188 137.049 6.69922 136.921 6.75391C136.666 6.75391 136.502 6.75391 136.429 6.75391C136.356 6.75391 136.274 6.75391 136.183 6.75391H135.527C135.381 6.75391 135.217 6.74479 135.035 6.72656C134.852 6.6901 134.661 6.61719 134.46 6.50781L134.269 6.28906C134.16 6.08854 134.059 5.97917 133.968 5.96094L133.667 5.87891V5.57812Z" fill="#FF6161"/>
<path d="M151.044 20.0703C150.989 20.0885 150.953 20.0703 150.935 20.0156C150.916 19.9609 150.907 19.9062 150.907 19.8516C150.925 19.7969 150.953 19.7513 150.989 19.7148C151.044 19.6784 151.108 19.6784 151.181 19.7148C150.944 19.4232 150.789 19.1589 150.716 18.9219C150.661 18.6849 150.543 18.3932 150.36 18.0469C150.415 17.9922 150.451 17.9193 150.47 17.8281C150.488 17.7188 150.515 17.6185 150.552 17.5273C150.57 17.4362 150.597 17.3724 150.634 17.3359C150.688 17.2812 150.752 17.2904 150.825 17.3633C150.789 17.1628 150.789 16.9987 150.825 16.8711C150.862 16.7435 150.898 16.625 150.935 16.5156C150.989 16.4062 151.026 16.2969 151.044 16.1875C151.062 16.0781 151.035 15.9505 150.962 15.8047C151.308 15.3307 151.536 14.8203 151.645 14.2734C151.755 13.7083 151.819 13.1979 151.837 12.7422C152.001 12.5781 152.138 12.3594 152.247 12.0859C152.375 11.8125 152.466 11.5299 152.52 11.2383C152.575 10.9466 152.602 10.6641 152.602 10.3906C152.602 10.099 152.566 9.87109 152.493 9.70703C152.511 9.63411 152.548 9.59766 152.602 9.59766C152.675 9.57943 152.757 9.57943 152.849 9.59766C152.976 8.86849 153.058 8.05729 153.095 7.16406C153.149 6.27083 153.241 5.41406 153.368 4.59375C153.514 3.75521 153.742 3.02604 154.052 2.40625C154.362 1.76823 154.854 1.35807 155.528 1.17578C155.656 1.63151 155.82 2.03255 156.02 2.37891C156.239 2.72526 156.467 3.0625 156.704 3.39062C156.959 3.71875 157.214 4.04688 157.47 4.375C157.725 4.70312 157.962 5.06771 158.181 5.46875C158.162 5.88802 158.117 6.37109 158.044 6.91797C157.989 7.46484 157.907 8.02083 157.798 8.58594C157.707 9.15104 157.606 9.69792 157.497 10.2266C157.406 10.7552 157.315 11.2018 157.224 11.5664C157.242 11.6576 157.306 11.7214 157.415 11.7578C157.524 11.776 157.543 11.8763 157.47 12.0586C157.998 11.931 158.545 11.8125 159.11 11.7031C159.694 11.5755 160.259 11.457 160.806 11.3477C161.371 11.2201 161.918 11.0742 162.446 10.9102C162.993 10.7461 163.504 10.5456 163.977 10.3086C164.087 9.43359 164.224 8.56771 164.388 7.71094C164.552 6.85417 164.57 5.98828 164.442 5.11328C164.552 5.02214 164.643 4.91276 164.716 4.78516C164.789 4.65755 164.898 4.57552 165.044 4.53906C164.935 4.11979 164.889 3.68229 164.907 3.22656C164.925 2.7526 164.998 2.3151 165.126 1.91406C165.272 1.51302 165.481 1.16667 165.755 0.875C166.028 0.565104 166.366 0.364583 166.767 0.273438C167.004 0.619792 167.213 0.99349 167.395 1.39453C167.578 1.79557 167.76 2.20573 167.942 2.625C168.125 3.02604 168.316 3.40885 168.517 3.77344C168.735 4.13802 169.009 4.44792 169.337 4.70312C169.392 5.34115 169.437 5.9974 169.474 6.67188C169.51 7.32812 169.537 8.01172 169.556 8.72266C169.392 9.54297 169.2 10.3451 168.981 11.1289C168.781 11.8945 168.635 12.7148 168.544 13.5898C168.398 13.7539 168.28 13.9544 168.188 14.1914C168.097 14.4102 168.006 14.638 167.915 14.875C167.842 15.0938 167.751 15.3125 167.642 15.5312C167.532 15.75 167.395 15.9323 167.231 16.0781C167.304 16.3333 167.313 16.5794 167.259 16.8164C167.222 17.0352 167.286 17.2995 167.45 17.6094C167.487 18.1745 167.414 18.6484 167.231 19.0312C167.067 19.3958 166.83 19.7148 166.52 19.9883C166.229 20.2435 165.882 20.4531 165.481 20.6172C165.099 20.763 164.716 20.8997 164.333 21.0273C164.151 20.918 163.977 20.8086 163.813 20.6992C163.668 20.5716 163.485 20.4805 163.267 20.4258L163.403 20.1797C163.039 19.8151 162.72 19.4323 162.446 19.0312C162.191 18.612 162.073 18.138 162.091 17.6094C162.091 17.5911 162.109 17.4727 162.145 17.2539C162.182 17.0169 162.218 16.7708 162.255 16.5156C162.31 16.2604 162.355 16.0234 162.392 15.8047C162.446 15.5677 162.474 15.4401 162.474 15.4219C161.963 15.4766 161.435 15.5951 160.888 15.7773C160.341 15.9596 159.803 16.1693 159.274 16.4062C158.764 16.625 158.281 16.862 157.825 17.1172C157.388 17.3542 157.032 17.5547 156.759 17.7188C156.759 17.7734 156.713 17.9284 156.622 18.1836C156.531 18.4388 156.422 18.7122 156.294 19.0039C156.166 19.2773 156.02 19.5234 155.856 19.7422C155.711 19.9609 155.556 20.0612 155.392 20.043C155.428 20.1341 155.464 20.207 155.501 20.2617C155.537 20.2982 155.537 20.3802 155.501 20.5078C155.191 20.599 154.908 20.7174 154.653 20.8633C154.416 21.0091 154.17 21.1276 153.915 21.2188C153.66 21.3281 153.377 21.3737 153.067 21.3555C152.776 21.3555 152.42 21.2461 152.001 21.0273C152.001 20.8997 151.946 20.7904 151.837 20.6992C151.727 20.5898 151.609 20.4987 151.481 20.4258C151.372 20.3529 151.272 20.2891 151.181 20.2344C151.089 20.1797 151.044 20.125 151.044 20.0703Z" fill="#FF6161"/>
<path d="M172.194 20.0703C172.048 19.9245 171.939 19.7513 171.866 19.5508C171.811 19.3503 171.665 19.1862 171.428 19.0586C171.392 18.7852 171.337 18.4753 171.264 18.1289C171.209 17.7643 171.146 17.3997 171.073 17.0352C171.018 16.6523 170.972 16.2786 170.936 15.9141C170.918 15.5312 170.936 15.1849 170.991 14.875C171.027 14.7109 171.082 14.556 171.155 14.4102C171.246 14.2643 171.328 14.1276 171.401 14C171.492 13.8542 171.556 13.7083 171.592 13.5625C171.647 13.4167 171.656 13.2708 171.62 13.125C171.729 13.1068 171.793 13.0521 171.811 12.9609C171.847 12.8516 171.939 12.8151 172.084 12.8516C172.212 12.4505 172.349 12.0768 172.495 11.7305C172.64 11.3841 172.795 11.0469 172.959 10.7188C173.123 10.3906 173.288 10.0625 173.452 9.73438C173.634 9.38802 173.798 9.00521 173.944 8.58594C173.634 8.29427 173.406 7.98438 173.26 7.65625C173.133 7.3099 173.032 6.96354 172.959 6.61719C172.886 6.27083 172.832 5.92448 172.795 5.57812C172.759 5.21354 172.686 4.84896 172.577 4.48438C172.795 4.15625 173.06 3.89193 173.37 3.69141C173.679 3.47266 174.017 3.29948 174.381 3.17188C174.764 3.02604 175.174 2.91667 175.612 2.84375C176.049 2.7526 176.514 2.65234 177.006 2.54297C177.881 2.26953 178.665 2.0599 179.358 1.91406C180.051 1.75 180.725 1.6224 181.381 1.53125C182.038 1.42188 182.721 1.33073 183.432 1.25781C184.143 1.16667 184.963 1.03906 185.893 0.875C185.911 0.929688 185.939 0.957031 185.975 0.957031C186.03 0.957031 186.093 0.957031 186.166 0.957031C186.221 1.08464 186.321 1.14844 186.467 1.14844C186.467 1.09375 186.458 1.04818 186.44 1.01172C186.44 0.957031 186.44 0.911458 186.44 0.875C186.476 0.875 186.522 0.884115 186.577 0.902344C186.649 0.920573 186.704 0.938802 186.741 0.957031C186.795 0.97526 186.841 0.97526 186.877 0.957031C186.914 0.920573 186.923 0.856771 186.905 0.765625C187.123 1.14844 187.406 1.46745 187.752 1.72266C188.099 1.95964 188.482 2.16927 188.901 2.35156C188.919 2.51562 188.919 2.63411 188.901 2.70703C188.901 2.77995 188.892 2.85286 188.873 2.92578C188.855 2.98047 188.846 3.05339 188.846 3.14453C188.846 3.21745 188.864 3.32682 188.901 3.47266C188.609 3.96484 188.272 4.34766 187.889 4.62109C187.524 4.89453 187.133 5.10417 186.713 5.25C186.294 5.39583 185.847 5.50521 185.373 5.57812C184.918 5.65104 184.444 5.73307 183.952 5.82422C183.478 5.89714 182.995 6.00651 182.502 6.15234C182.01 6.29818 181.527 6.51693 181.053 6.80859C180.907 6.75391 180.771 6.73568 180.643 6.75391C180.534 6.75391 180.415 6.77214 180.288 6.80859C180.16 6.84505 180.014 6.88151 179.85 6.91797C179.704 6.95443 179.522 6.95443 179.303 6.91797C179.157 7.04557 178.984 7.13672 178.784 7.19141C178.601 7.24609 178.41 7.30078 178.209 7.35547C178.301 7.55599 178.337 7.75651 178.319 7.95703C178.319 8.15755 178.346 8.33073 178.401 8.47656C179.166 8.54948 180.014 8.54948 180.944 8.47656C181.873 8.38542 182.785 8.32161 183.678 8.28516C183.696 8.3763 183.687 8.4401 183.651 8.47656C183.614 8.51302 183.596 8.57682 183.596 8.66797C183.76 8.77734 183.915 8.91406 184.061 9.07812C184.207 9.24219 184.353 9.40625 184.498 9.57031C184.663 9.71615 184.827 9.84375 184.991 9.95312C185.155 10.0443 185.346 10.0807 185.565 10.0625C185.656 10.2448 185.72 10.4362 185.756 10.6367C185.793 10.8372 185.765 11.0469 185.674 11.2656C185.31 11.5026 184.954 11.7487 184.608 12.0039C184.261 12.2409 183.897 12.4596 183.514 12.6602C183.149 12.8607 182.748 13.0247 182.311 13.1523C181.873 13.2799 181.399 13.3346 180.889 13.3164C180.798 13.3164 180.716 13.3164 180.643 13.3164C180.588 13.3164 180.515 13.2799 180.424 13.207C180.242 13.2982 179.996 13.3346 179.686 13.3164C179.394 13.2799 179.148 13.3073 178.948 13.3984C178.692 13.3073 178.392 13.2617 178.045 13.2617C177.717 13.2617 177.426 13.2161 177.17 13.125C176.842 13.599 176.532 14.1003 176.241 14.6289C175.949 15.1393 175.694 15.6862 175.475 16.2695C176.222 16.3789 176.842 16.4245 177.334 16.4062C177.827 16.388 178.291 16.3516 178.729 16.2969C179.166 16.2422 179.613 16.1875 180.069 16.1328C180.543 16.0781 181.117 16.0599 181.791 16.0781C182.247 15.8594 182.767 15.7135 183.35 15.6406C183.952 15.5495 184.508 15.4219 185.018 15.2578C185.2 15.3125 185.355 15.4219 185.483 15.5859C185.61 15.7318 185.729 15.8867 185.838 16.0508C185.966 16.1966 186.093 16.3242 186.221 16.4336C186.349 16.543 186.513 16.5794 186.713 16.543C186.804 16.6341 186.859 16.7435 186.877 16.8711C186.914 16.9987 186.941 17.1172 186.959 17.2266C186.996 17.3359 187.041 17.4271 187.096 17.5C187.151 17.5547 187.251 17.5729 187.397 17.5547C187.051 18.2656 186.659 18.8125 186.221 19.1953C185.802 19.5781 185.319 19.8789 184.772 20.0977C184.243 20.2982 183.642 20.4531 182.967 20.5625C182.311 20.6536 181.573 20.7721 180.752 20.918C180.552 20.9544 180.379 20.9544 180.233 20.918C180.105 20.8633 179.968 20.8359 179.823 20.8359C179.312 20.9271 178.702 21.0182 177.991 21.1094C177.298 21.2005 176.596 21.237 175.885 21.2188C175.174 21.2005 174.491 21.1094 173.834 20.9453C173.178 20.7812 172.631 20.4896 172.194 20.0703Z" fill="#FF6161"/>
<path d="M201.97 7.79297C201.204 7.48307 200.566 7.04557 200.056 6.48047C199.564 5.91536 199.163 5.25 198.853 4.48438C199.035 3.99219 199.327 3.58203 199.728 3.25391C200.129 2.90755 200.575 2.61589 201.068 2.37891C201.578 2.14193 202.116 1.95052 202.681 1.80469C203.246 1.65885 203.793 1.53125 204.322 1.42188C204.431 1.45833 204.486 1.45833 204.486 1.42188C204.486 1.38542 204.531 1.40365 204.622 1.47656C205.279 1.27604 206.035 1.08464 206.892 0.902344C207.749 0.701823 208.66 0.628906 209.626 0.683594C209.754 0.610677 209.909 0.574219 210.091 0.574219C210.273 0.55599 210.465 0.546875 210.665 0.546875C210.866 0.546875 211.057 0.546875 211.24 0.546875C211.422 0.528646 211.577 0.492188 211.704 0.4375C211.814 0.565104 211.978 0.647135 212.197 0.683594C212.415 0.701823 212.643 0.792969 212.88 0.957031C212.953 0.97526 212.953 0.947917 212.88 0.875C212.807 0.783854 212.816 0.720052 212.908 0.683594C213.144 0.683594 213.354 0.738281 213.536 0.847656C213.719 0.957031 213.883 1.08464 214.029 1.23047C214.193 1.35807 214.338 1.47656 214.466 1.58594C214.612 1.69531 214.767 1.75 214.931 1.75C215.095 1.95052 215.286 2.14193 215.505 2.32422C215.742 2.48828 215.961 2.66146 216.161 2.84375C216.38 3.02604 216.553 3.22656 216.681 3.44531C216.827 3.66406 216.9 3.91016 216.9 4.18359C216.881 4.29297 216.918 4.35677 217.009 4.375C217.1 4.39323 217.164 4.44792 217.2 4.53906C217.219 5.21354 217.109 5.79688 216.872 6.28906C216.654 6.78125 216.371 7.23698 216.025 7.65625C215.678 8.05729 215.305 8.4401 214.904 8.80469C214.521 9.16927 214.165 9.5612 213.837 9.98047C214.056 10.2539 214.302 10.5091 214.575 10.7461C214.867 10.9648 215.159 11.1836 215.45 11.4023C215.742 11.6211 216.016 11.8581 216.271 12.1133C216.544 12.3503 216.772 12.6237 216.954 12.9336C217.009 13.043 217.128 13.1159 217.31 13.1523C217.365 13.3711 217.437 13.599 217.529 13.8359C217.638 14.0547 217.738 14.2734 217.829 14.4922C217.921 14.6927 217.975 14.875 217.993 15.0391C218.012 15.2031 217.966 15.3398 217.857 15.4492C217.984 15.5221 218.057 15.6406 218.075 15.8047C218.094 15.9505 218.094 16.069 218.075 16.1602C217.674 16.6523 217.401 16.9987 217.255 17.1992C217.109 17.3997 217 17.5456 216.927 17.6367C216.854 17.7279 216.781 17.8099 216.708 17.8828C216.635 17.9557 216.471 18.1016 216.216 18.3203C215.25 18.9036 214.238 19.4323 213.181 19.9062C212.142 20.362 211.057 20.6719 209.927 20.8359C209.836 20.9635 209.699 21.0638 209.517 21.1367C209.353 21.2279 209.161 21.3008 208.943 21.3555C208.724 21.4102 208.487 21.4557 208.232 21.4922C207.995 21.5286 207.776 21.5651 207.575 21.6016C207.484 21.5651 207.43 21.5013 207.411 21.4102C207.411 21.3372 207.366 21.2826 207.275 21.2461C207.256 21.4648 207.156 21.5742 206.974 21.5742C206.81 21.5924 206.6 21.556 206.345 21.4648C206.09 21.3737 205.825 21.2461 205.552 21.082C205.279 20.918 205.042 20.763 204.841 20.6172C204.75 20.7812 204.631 20.9544 204.486 21.1367C204.358 21.319 204.221 21.4466 204.075 21.5195C203.82 21.4831 203.629 21.4557 203.501 21.4375C203.392 21.4193 203.283 21.4648 203.173 21.5742C203.027 21.5013 202.918 21.4193 202.845 21.3281C202.772 21.2552 202.699 21.1732 202.626 21.082C202.553 21.0091 202.471 20.9453 202.38 20.8906C202.289 20.8177 202.152 20.7539 201.97 20.6992C202.006 20.6081 201.979 20.4714 201.888 20.2891C201.797 20.0885 201.669 19.9701 201.505 19.9336C201.596 19.7878 201.56 19.6055 201.396 19.3867C201.232 19.1497 201.104 18.8854 201.013 18.5938C201.031 18.4661 201.04 18.3385 201.04 18.2109C201.059 18.0651 201.077 17.9375 201.095 17.8281C201.131 17.7005 201.177 17.5911 201.232 17.5C201.286 17.4089 201.378 17.3451 201.505 17.3086C201.487 17.0716 201.414 16.8438 201.286 16.625C201.45 16.4974 201.56 16.3424 201.615 16.1602C201.669 15.9596 201.715 15.7591 201.751 15.5586C201.806 15.3581 201.87 15.1667 201.943 14.9844C202.016 14.7839 202.134 14.6198 202.298 14.4922C202.262 14.4375 202.225 14.3919 202.189 14.3555C202.152 14.319 202.134 14.2552 202.134 14.1641C202.408 13.7083 202.599 13.3255 202.708 13.0156C202.818 12.6875 202.9 12.3776 202.954 12.0859C203.027 11.776 203.1 11.4479 203.173 11.1016C203.246 10.7552 203.392 10.3177 203.611 9.78906C203.592 9.46094 203.629 9.16927 203.72 8.91406C203.811 8.65885 203.902 8.41276 203.993 8.17578C204.103 7.92057 204.185 7.65625 204.24 7.38281C204.294 7.10938 204.285 6.79036 204.212 6.42578C203.902 6.46224 203.674 6.57161 203.529 6.75391C203.401 6.9362 203.319 7.18229 203.283 7.49219C203.118 7.63802 202.909 7.71094 202.654 7.71094C202.398 7.69271 202.171 7.72005 201.97 7.79297ZM214.001 13.0703C213.309 12.6875 212.671 12.4596 212.087 12.3867C211.522 12.3138 210.975 12.3229 210.447 12.4141C209.936 12.487 209.444 12.5964 208.97 12.7422C208.496 12.888 208.022 12.9974 207.548 13.0703C207.311 13.6901 207.065 14.3737 206.81 15.1211C206.555 15.8685 206.309 16.5977 206.072 17.3086C206.728 17.2174 207.329 17.0807 207.876 16.8984C208.423 16.7161 208.952 16.5156 209.462 16.2969C209.973 16.0599 210.474 15.832 210.966 15.6133C211.458 15.3763 211.969 15.1576 212.497 14.957C212.552 14.7383 212.671 14.5651 212.853 14.4375C213.035 14.3099 213.217 14.1914 213.4 14.082C213.582 13.9544 213.737 13.8177 213.865 13.6719C213.992 13.526 214.038 13.3255 214.001 13.0703ZM212.087 4.51172C210.957 4.47526 209.845 4.57552 208.751 4.8125C207.658 5.04948 206.737 5.39583 205.99 5.85156C206.354 6.16146 206.728 6.4349 207.111 6.67188C207.512 6.90885 207.812 7.22786 208.013 7.62891C208.888 7.28255 209.654 6.84505 210.31 6.31641C210.966 5.76953 211.559 5.16797 212.087 4.51172Z" fill="#FF6161"/>
<path d="M221.014 20.0703C220.869 19.9245 220.759 19.7513 220.686 19.5508C220.632 19.3503 220.486 19.1862 220.249 19.0586C220.212 18.7852 220.158 18.4753 220.085 18.1289C220.03 17.7643 219.966 17.3997 219.893 17.0352C219.839 16.6523 219.793 16.2786 219.757 15.9141C219.738 15.5312 219.757 15.1849 219.811 14.875C219.848 14.7109 219.902 14.556 219.975 14.4102C220.066 14.2643 220.148 14.1276 220.221 14C220.313 13.8542 220.376 13.7083 220.413 13.5625C220.467 13.4167 220.477 13.2708 220.44 13.125C220.55 13.1068 220.613 13.0521 220.632 12.9609C220.668 12.8516 220.759 12.8151 220.905 12.8516C221.033 12.4505 221.169 12.0768 221.315 11.7305C221.461 11.3841 221.616 11.0469 221.78 10.7188C221.944 10.3906 222.108 10.0625 222.272 9.73438C222.454 9.38802 222.619 9.00521 222.764 8.58594C222.454 8.29427 222.227 7.98438 222.081 7.65625C221.953 7.3099 221.853 6.96354 221.78 6.61719C221.707 6.27083 221.652 5.92448 221.616 5.57812C221.579 5.21354 221.507 4.84896 221.397 4.48438C221.616 4.15625 221.88 3.89193 222.19 3.69141C222.5 3.47266 222.837 3.29948 223.202 3.17188C223.585 3.02604 223.995 2.91667 224.432 2.84375C224.87 2.7526 225.335 2.65234 225.827 2.54297C226.702 2.26953 227.486 2.0599 228.178 1.91406C228.871 1.75 229.546 1.6224 230.202 1.53125C230.858 1.42188 231.542 1.33073 232.253 1.25781C232.964 1.16667 233.784 1.03906 234.714 0.875C234.732 0.929688 234.759 0.957031 234.796 0.957031C234.85 0.957031 234.914 0.957031 234.987 0.957031C235.042 1.08464 235.142 1.14844 235.288 1.14844C235.288 1.09375 235.279 1.04818 235.26 1.01172C235.26 0.957031 235.26 0.911458 235.26 0.875C235.297 0.875 235.342 0.884115 235.397 0.902344C235.47 0.920573 235.525 0.938802 235.561 0.957031C235.616 0.97526 235.662 0.97526 235.698 0.957031C235.734 0.920573 235.744 0.856771 235.725 0.765625C235.944 1.14844 236.227 1.46745 236.573 1.72266C236.919 1.95964 237.302 2.16927 237.721 2.35156C237.74 2.51562 237.74 2.63411 237.721 2.70703C237.721 2.77995 237.712 2.85286 237.694 2.92578C237.676 2.98047 237.667 3.05339 237.667 3.14453C237.667 3.21745 237.685 3.32682 237.721 3.47266C237.43 3.96484 237.092 4.34766 236.71 4.62109C236.345 4.89453 235.953 5.10417 235.534 5.25C235.115 5.39583 234.668 5.50521 234.194 5.57812C233.738 5.65104 233.264 5.73307 232.772 5.82422C232.298 5.89714 231.815 6.00651 231.323 6.15234C230.831 6.29818 230.348 6.51693 229.874 6.80859C229.728 6.75391 229.591 6.73568 229.464 6.75391C229.354 6.75391 229.236 6.77214 229.108 6.80859C228.981 6.84505 228.835 6.88151 228.671 6.91797C228.525 6.95443 228.342 6.95443 228.124 6.91797C227.978 7.04557 227.805 7.13672 227.604 7.19141C227.422 7.24609 227.231 7.30078 227.03 7.35547C227.121 7.55599 227.158 7.75651 227.139 7.95703C227.139 8.15755 227.167 8.33073 227.221 8.47656C227.987 8.54948 228.835 8.54948 229.764 8.47656C230.694 8.38542 231.606 8.32161 232.499 8.28516C232.517 8.3763 232.508 8.4401 232.471 8.47656C232.435 8.51302 232.417 8.57682 232.417 8.66797C232.581 8.77734 232.736 8.91406 232.882 9.07812C233.027 9.24219 233.173 9.40625 233.319 9.57031C233.483 9.71615 233.647 9.84375 233.811 9.95312C233.975 10.0443 234.167 10.0807 234.385 10.0625C234.477 10.2448 234.54 10.4362 234.577 10.6367C234.613 10.8372 234.586 11.0469 234.495 11.2656C234.13 11.5026 233.775 11.7487 233.428 12.0039C233.082 12.2409 232.717 12.4596 232.335 12.6602C231.97 12.8607 231.569 13.0247 231.132 13.1523C230.694 13.2799 230.22 13.3346 229.71 13.3164C229.619 13.3164 229.537 13.3164 229.464 13.3164C229.409 13.3164 229.336 13.2799 229.245 13.207C229.063 13.2982 228.816 13.3346 228.507 13.3164C228.215 13.2799 227.969 13.3073 227.768 13.3984C227.513 13.3073 227.212 13.2617 226.866 13.2617C226.538 13.2617 226.246 13.2161 225.991 13.125C225.663 13.599 225.353 14.1003 225.061 14.6289C224.77 15.1393 224.514 15.6862 224.296 16.2695C225.043 16.3789 225.663 16.4245 226.155 16.4062C226.647 16.388 227.112 16.3516 227.55 16.2969C227.987 16.2422 228.434 16.1875 228.889 16.1328C229.363 16.0781 229.938 16.0599 230.612 16.0781C231.068 15.8594 231.587 15.7135 232.171 15.6406C232.772 15.5495 233.328 15.4219 233.839 15.2578C234.021 15.3125 234.176 15.4219 234.303 15.5859C234.431 15.7318 234.55 15.8867 234.659 16.0508C234.787 16.1966 234.914 16.3242 235.042 16.4336C235.169 16.543 235.333 16.5794 235.534 16.543C235.625 16.6341 235.68 16.7435 235.698 16.8711C235.734 16.9987 235.762 17.1172 235.78 17.2266C235.816 17.3359 235.862 17.4271 235.917 17.5C235.971 17.5547 236.072 17.5729 236.217 17.5547C235.871 18.2656 235.479 18.8125 235.042 19.1953C234.622 19.5781 234.139 19.8789 233.592 20.0977C233.064 20.2982 232.462 20.4531 231.788 20.5625C231.132 20.6536 230.393 20.7721 229.573 20.918C229.372 20.9544 229.199 20.9544 229.053 20.918C228.926 20.8633 228.789 20.8359 228.643 20.8359C228.133 20.9271 227.522 21.0182 226.811 21.1094C226.119 21.2005 225.417 21.237 224.706 21.2188C223.995 21.2005 223.311 21.1094 222.655 20.9453C221.999 20.7812 221.452 20.4896 221.014 20.0703Z" fill="#FF6161"/>
<path d="M237.953 8.66797C238.008 8.39453 238.044 8.17578 238.063 8.01172C238.081 7.82943 238.017 7.63802 237.871 7.4375C237.944 7.14583 237.999 6.91797 238.035 6.75391C238.09 6.58984 238.099 6.36198 238.063 6.07031C238.227 5.59635 238.473 5.19531 238.801 4.86719C239.147 4.53906 239.521 4.26562 239.922 4.04688C240.323 3.8099 240.742 3.61849 241.18 3.47266C241.617 3.30859 242.027 3.17188 242.41 3.0625C242.41 2.98958 242.374 2.95312 242.301 2.95312C242.228 2.95312 242.21 2.90755 242.246 2.81641C243.231 2.63411 244.215 2.36979 245.199 2.02344C246.202 1.67708 247.223 1.36719 248.262 1.09375C249.301 0.820312 250.367 0.65625 251.461 0.601562C252.555 0.528646 253.703 0.665365 254.906 1.01172C254.979 1.23047 255.08 1.4401 255.207 1.64062C255.335 1.84115 255.462 2.04167 255.59 2.24219C255.736 2.42448 255.863 2.60677 255.973 2.78906C256.082 2.97135 256.146 3.16276 256.164 3.36328C256.383 3.5638 256.556 3.78255 256.684 4.01953C256.83 4.23828 256.857 4.53906 256.766 4.92188C256.565 5.06771 256.356 5.21354 256.137 5.35938C255.918 5.50521 255.69 5.64193 255.453 5.76953C254.633 5.56901 253.813 5.49609 252.992 5.55078C252.172 5.60547 251.434 5.66927 250.777 5.74219C250.577 5.52344 250.34 5.42318 250.067 5.44141C249.793 5.44141 249.501 5.48698 249.192 5.57812C248.9 5.65104 248.608 5.73307 248.317 5.82422C248.025 5.89714 247.751 5.91536 247.496 5.87891C247.296 6.0612 247.031 6.1888 246.703 6.26172C246.375 6.31641 246.029 6.36198 245.664 6.39844C245.646 6.48958 245.664 6.55339 245.719 6.58984C245.774 6.6263 245.783 6.69922 245.746 6.80859C245.874 6.97266 246.047 7.09115 246.266 7.16406C246.485 7.21875 246.703 7.27344 246.922 7.32812C247.159 7.38281 247.369 7.46484 247.551 7.57422C247.733 7.66536 247.852 7.82031 247.906 8.03906C248.235 8.05729 248.517 8.14844 248.754 8.3125C248.991 8.45833 249.192 8.64062 249.356 8.85938C249.52 9.07812 249.638 9.3151 249.711 9.57031C249.784 9.80729 249.811 10.026 249.793 10.2266C249.866 10.4089 249.939 10.4818 250.012 10.4453C250.103 10.4089 250.203 10.4544 250.313 10.582C250.386 10.8555 250.55 11.1471 250.805 11.457C251.078 11.7487 251.288 12.0677 251.434 12.4141C251.47 12.9609 251.498 13.4531 251.516 13.8906C251.552 14.3281 251.479 14.7565 251.297 15.1758C250.987 15.9779 250.541 16.6979 249.957 17.3359C249.374 17.974 248.708 18.5391 247.961 19.0312C247.232 19.5052 246.457 19.9245 245.637 20.2891C244.817 20.6354 244.005 20.9271 243.203 21.1641C243.13 21.1458 243.039 21.1458 242.93 21.1641C242.839 21.1823 242.82 21.1276 242.875 21C242.711 21.1458 242.52 21.237 242.301 21.2734C242.1 21.3099 241.873 21.319 241.617 21.3008C241.38 21.3008 241.134 21.2917 240.879 21.2734C240.642 21.2552 240.405 21.2643 240.168 21.3008C240.022 21.1549 239.886 21.0091 239.758 20.8633C239.649 20.7174 239.557 20.5443 239.485 20.3438C239.393 20.3255 239.348 20.2708 239.348 20.1797C239.366 20.0703 239.33 20.0156 239.238 20.0156C239.238 19.9427 239.248 19.888 239.266 19.8516C239.284 19.8151 239.302 19.7786 239.32 19.7422C239.393 19.6875 239.421 19.651 239.402 19.6328C239.402 19.5964 239.375 19.569 239.32 19.5508C239.284 19.5143 239.238 19.4779 239.184 19.4414C239.147 19.4049 239.138 19.3594 239.156 19.3047C239.248 19.1406 239.275 18.9492 239.238 18.7305C239.22 18.4935 239.202 18.2565 239.184 18.0195C239.166 17.7826 239.184 17.5638 239.238 17.3633C239.293 17.1445 239.448 16.9622 239.703 16.8164C240.451 16.8893 241.152 16.8529 241.809 16.707C242.483 16.5612 243.112 16.3607 243.695 16.1055C244.297 15.8503 244.862 15.5768 245.391 15.2852C245.938 14.9753 246.466 14.6927 246.977 14.4375C247.031 14.2552 247.113 14.1003 247.223 13.9727C247.35 13.8451 247.478 13.7266 247.606 13.6172C247.733 13.4896 247.852 13.362 247.961 13.2344C248.07 13.0885 248.152 12.9154 248.207 12.7148C248.225 12.6419 248.225 12.5872 248.207 12.5508C248.189 12.5143 248.162 12.487 248.125 12.4688C248.089 12.4323 248.052 12.3958 248.016 12.3594C247.979 12.3229 247.961 12.2682 247.961 12.1953C247.906 12.1771 247.852 12.1589 247.797 12.1406C247.761 12.1224 247.724 12.1133 247.688 12.1133C247.214 11.8763 246.712 11.6758 246.184 11.5117C245.655 11.3477 245.208 11.1654 244.844 10.9648C244.625 11.1107 244.406 11.1471 244.188 11.0742C243.969 11.0013 243.705 10.9284 243.395 10.8555C242.629 10.819 241.9 10.7461 241.207 10.6367C240.533 10.5273 239.876 10.3359 239.238 10.0625C239.202 9.95312 239.156 9.86198 239.102 9.78906C239.047 9.69792 238.919 9.67057 238.719 9.70703C238.591 9.52474 238.455 9.36068 238.309 9.21484C238.181 9.05078 238.063 8.86849 237.953 8.66797Z" fill="#FF6161"/>
<path d="M254.892 5.57812C254.874 5.43229 254.837 5.30469 254.783 5.19531C254.746 5.06771 254.701 4.93099 254.646 4.78516C254.555 4.56641 254.473 4.32943 254.4 4.07422C254.327 3.81901 254.291 3.51823 254.291 3.17188C254.327 2.98958 254.373 2.86198 254.427 2.78906C254.482 2.69792 254.537 2.625 254.591 2.57031L254.701 2.07812H255.111C255.257 2.09635 255.403 2.10547 255.548 2.10547C255.712 2.10547 255.867 2.10547 256.013 2.10547C256.706 2.10547 257.417 2.07812 258.146 2.02344C258.875 1.96875 259.623 1.90495 260.388 1.83203C261.227 1.72266 262.129 1.64062 263.095 1.58594C263.186 1.38542 263.241 1.25781 263.259 1.20312C263.296 1.14844 263.332 1.08464 263.369 1.01172L263.67 0.847656C264.089 0.829427 264.38 0.884115 264.545 1.01172C264.709 1.12109 264.836 1.23047 264.927 1.33984C265.401 1.30339 265.884 1.25781 266.377 1.20312C266.869 1.13021 267.379 1.05729 267.908 0.984375C268.637 0.893229 269.375 0.802083 270.123 0.710938C270.87 0.619792 271.599 0.574219 272.31 0.574219C272.62 0.574219 272.912 0.583333 273.185 0.601562C273.459 0.619792 273.723 0.647135 273.978 0.683594L274.306 0.929688C274.379 1.05729 274.47 1.17578 274.58 1.28516C274.689 1.39453 274.817 1.50391 274.962 1.61328C275.236 1.83203 275.5 2.10547 275.755 2.43359C276.029 2.76172 276.129 3.24479 276.056 3.88281L275.92 4.15625C275.847 4.22917 275.755 4.30208 275.646 4.375L275.373 4.73047H275.072C274.89 4.73047 274.753 4.7487 274.662 4.78516C274.571 4.80339 274.461 4.83984 274.334 4.89453C274.261 4.93099 274.179 4.96745 274.087 5.00391C273.996 5.02214 273.896 5.04948 273.787 5.08594C273.586 5.06771 273.431 5.05859 273.322 5.05859C273.212 5.05859 273.085 5.05859 272.939 5.05859C272.392 5.05859 271.8 5.09505 271.162 5.16797C270.524 5.24089 269.904 5.32292 269.302 5.41406C268.865 5.46875 268.446 5.52344 268.045 5.57812C267.643 5.61458 267.279 5.65104 266.951 5.6875C266.768 6.16146 266.604 6.58073 266.459 6.94531C266.313 7.3099 266.158 7.67448 265.994 8.03906C265.83 8.40365 265.675 8.77734 265.529 9.16016C265.383 9.52474 265.246 9.9349 265.119 10.3906C264.9 10.7188 264.718 11.0378 264.572 11.3477C264.426 11.6393 264.308 11.9766 264.216 12.3594C263.943 12.6693 263.742 13.0065 263.615 13.3711C263.505 13.7357 263.405 14.0456 263.314 14.3008L263.205 14.7109C263.077 14.8385 262.995 14.9388 262.959 15.0117C262.94 15.0846 262.895 15.1667 262.822 15.2578C262.767 15.4948 262.694 15.7227 262.603 15.9414C262.567 16.0326 262.53 16.1328 262.494 16.2422C262.457 16.3333 262.448 16.4062 262.466 16.4609C262.43 16.6615 262.375 16.8164 262.302 16.9258C262.302 17.0352 262.293 17.1445 262.275 17.2539C262.257 17.3633 262.239 17.4727 262.22 17.582C262.184 17.7096 262.157 17.8281 262.138 17.9375C262.12 18.0286 262.129 18.1198 262.166 18.2109C262.22 18.2839 262.275 18.3568 262.33 18.4297C262.384 18.5026 262.43 18.5938 262.466 18.7031C262.503 18.7396 262.548 18.7669 262.603 18.7852C262.658 18.8034 262.703 18.8307 262.74 18.8672C262.886 18.9948 263.022 19.0677 263.15 19.0859L263.423 19.4141C263.533 20.0703 263.433 20.5807 263.123 20.9453C262.795 21.3646 262.248 21.5742 261.482 21.5742L261.099 21.5469C260.972 21.4193 260.899 21.3372 260.88 21.3008C260.716 21.2279 260.58 21.1641 260.47 21.1094C260.361 21.0729 260.261 20.9909 260.17 20.8633C260.133 20.8268 260.087 20.8086 260.033 20.8086C259.978 20.7904 259.933 20.763 259.896 20.7266C259.714 20.6719 259.568 20.6081 259.459 20.5352L259.158 20.3711C259.176 20.1888 259.185 20.0612 259.185 19.9883C259.039 19.7878 258.921 19.569 258.83 19.332C258.757 19.0951 258.693 18.849 258.638 18.5938C258.584 18.3932 258.529 18.2109 258.474 18.0469C258.438 17.8828 258.374 17.737 258.283 17.6094C258.246 16.3333 258.365 15.2669 258.638 14.4102C258.912 13.5352 259.212 12.6875 259.541 11.8672C259.723 11.4297 259.896 10.9831 260.06 10.5273C260.224 10.0716 260.37 9.60677 260.498 9.13281L260.798 8.83203C260.926 8.72266 261.008 8.65885 261.045 8.64062C261.045 8.40365 261.09 8.17578 261.181 7.95703C261.272 7.72005 261.373 7.48307 261.482 7.24609C261.555 7.10026 261.619 6.95443 261.673 6.80859C261.746 6.66276 261.792 6.53516 261.81 6.42578C261.683 6.42578 261.564 6.4349 261.455 6.45312C261.364 6.45312 261.263 6.46224 261.154 6.48047C260.917 6.53516 260.689 6.5625 260.47 6.5625C260.306 6.5625 260.188 6.55339 260.115 6.53516C259.969 6.60807 259.832 6.65365 259.705 6.67188C259.577 6.67188 259.449 6.67188 259.322 6.67188H258.666C258.447 6.67188 258.274 6.69922 258.146 6.75391C257.891 6.75391 257.727 6.75391 257.654 6.75391C257.581 6.75391 257.499 6.75391 257.408 6.75391H256.752C256.606 6.75391 256.442 6.74479 256.259 6.72656C256.077 6.6901 255.886 6.61719 255.685 6.50781L255.494 6.28906C255.384 6.08854 255.284 5.97917 255.193 5.96094L254.892 5.87891V5.57812Z" fill="#FF6161"/>
<path d="M359.965 59L366.849 49.73L355.379 48.4026L359.965 59ZM298.993 11C309.853 11.0743 325.229 13.2155 337.835 19.1988C350.423 25.1741 360.064 34.871 360 50.051L362 50.0595C362.069 33.8036 351.661 23.5479 338.692 17.392C325.74 11.2442 310.05 9.07565 299.007 9.00002L298.993 11Z" fill="#FF6161"/>
</svg>
